<?xml version="1.0" standalone="no"?>
<!DOCTYPE svg PUBLIC "-//W3C//DTD SVG 1.1//EN" "http://www.w3.org/Graphics/SVG/1.1/DTD/svg11.dtd" >
<svg xmlns="http://www.w3.org/2000/svg">
<metadata>
This is a custom SVG webfont generated by Font Squirrel.
Copyright   : Copyright  1997 2001 Berthold LLC All rights reserved AkzidenzGrotesk is a trademark of Berthold Types Limited
</metadata>
<defs>
<font id="AkzidenzGroteskBQCondensedRg" horiz-adv-x="724" >
<font-face units-per-em="2048" ascent="1638" descent="-410" />
<missing-glyph horiz-adv-x="425" />
<glyph unicode=" "  horiz-adv-x="425" />
<glyph unicode="&#x09;" horiz-adv-x="425" />
<glyph unicode="&#xa0;" horiz-adv-x="425" />
<glyph unicode="!" horiz-adv-x="425" d="M168 0v242h176v-242h-176zM168 991v455h176v-455l-45 -598h-90z" />
<glyph unicode="&#x22;" horiz-adv-x="557" d="M59 1518h158l-47 -592h-59zM338 1518h160l-49 -592h-58z" />
<glyph unicode="#" horiz-adv-x="1101" d="M31 471v158h256l20 219h-248v158h267l39 440h163l-41 -440h179l43 440h161l-43 -440h242v-158h-254l-20 -219h247v-158h-264l-43 -471h-162l43 471h-178l-45 -471h-162l43 471h-243zM451 629h180l20 219h-180z" />
<glyph unicode="$" horiz-adv-x="811" d="M59 328v48v44v80h168v-80q0 -102 4 -131q8 -88 70 -129q27 -14 51 -23v535l-86 90q-70 76 -88 102q-47 63 -64.5 123t-17.5 148q0 205 117 282q61 39 139 47v172h117l2 -172q123 -10 186 -73q47 -49 59.5 -110.5t12.5 -152.5v-110h-164v80q0 139 -49 182q-18 16 -47 23 v-488l96 -104q72 -76 104.5 -119t61.5 -114.5t29 -155.5q0 -229 -174 -310q-45 -23 -117 -30v-175h-117v175q-37 4 -51 8q-119 20 -188 123q-12 20 -22.5 39.5t-15.5 45t-9.5 41t-5.5 47.5t-1 42zM266 1139q0 -53 18.5 -98.5t29 -59.5t38.5 -45v367q-25 -10 -41 -27 q-45 -43 -45 -137zM469 543l2 -406q20 6 47 23q66 47 66 164q0 45 -17 82q-28 67 -98 137z" />
<glyph unicode="%" horiz-adv-x="1280" d="M43 991q0 35 1 104.5t1 104.5q0 170 84 223q55 35 125 35q61 0 111 -26q102 -53 102 -238q0 -33 1 -99.5t1 -99.5q0 -74 -4 -217q0 -100 -27 -153q-49 -92 -182 -93q-82 0 -131 33q-39 25 -56.5 71t-19.5 85t-4 143q0 20 -1 62t-1 65zM180 995q0 -29 1 -88t1 -90v-76 q0 -84 72 -84q61 0 70 52q6 49 6 129q0 26 -1 77.5t-1 75.5v221q-4 82 -23 101q-16 18 -51 18q-55 0 -68 -55q-6 -35 -6 -146v-135zM238 0l710 1446h94l-704 -1446h-100zM811 449q0 35 1 104.5t1 103.5q0 170 84 224q55 35 125 34q61 0 111 -26q102 -53 102 -238 q0 -33 1 -98.5t1 -99.5q0 -74 -4 -217q0 -100 -27 -154q-49 -92 -182 -92q-82 0 -131 33q-39 25 -56.5 70.5t-19.5 84.5t-4 144q0 20 -1 62t-1 65zM948 453q0 -31 1 -89.5t1 -87.5v-77q0 -84 72 -84q61 0 70 51q6 49 6 129q0 24 -1 75.5t-1 78.5v221v15q0 13 -1 17.5 t-2 16.5t-2 16t-4.5 13.5t-6.5 13.5t-9 10t-12 9t-16.5 5t-20.5 2q-55 0 -68 -55q-6 -33 -6 -145v-135z" />
<glyph unicode="&#x26;" horiz-adv-x="937" d="M141 602q18 27 31 39l35 35l51 51q-94 197 -94 303q0 43 12 80q53 164 236 164q47 0 96 -17q33 -10 63.5 -30.5t62.5 -70.5t32 -118q0 -96 -74 -202q-49 -72 -131 -148q47 -98 182 -321q23 47 27 57q23 72 22 203h158q1 -16 1 -33t-1 -35q-8 -135 -59 -256 q-8 -25 -46 -88q8 -14 23 -29q39 -41 127 -41v-153q-15 -1 -29 -1q-107 0 -178 54q-14 10 -45 41l-37 -31q-90 -76 -235 -75q-150 0 -240 93q-88 91 -88 236q0 156 98 293zM215 311q0 -35 10 -73q8 -23 21.5 -44.5t49.5 -45t81 -23.5q96 0 166 86q-70 94 -209 362 q-27 -20 -43 -38q-76 -81 -76 -224zM324 1026q0 -70 67 -190l29 28q94 94 94 170q0 55 -31.5 79t-64.5 24q-49 0 -74 -31q-20 -27 -20 -80z" />
<glyph unicode="'" horiz-adv-x="278" d="M59 1518h158l-47 -592h-59z" />
<glyph unicode="(" horiz-adv-x="598" d="M141 569q0 434 340 901l88 -77q-244 -342 -243 -805q0 -467 188 -768q6 -10 66 -96l-82 -74q-72 74 -160 233q-197 356 -197 686z" />
<glyph unicode=")" horiz-adv-x="598" d="M16 -276q256 348 256 868q0 459 -245 801l88 77q342 -449 342 -901q0 -326 -199 -686q-88 -158 -158 -233z" />
<glyph unicode="*" horiz-adv-x="679" d="M53 1194l33 111l193 -54v201h116v-205l195 68l39 -107l-197 -71l121 -164l-92 -70l-125 164l-111 -166l-94 70l111 166z" />
<glyph unicode="+" horiz-adv-x="1142" d="M170 535v149h317v348h170v-348h316v-149h-316v-347h-170v347h-317z" />
<glyph unicode="," horiz-adv-x="342" d="M84 0v242h174v-250q0 -115 -37 -183.5t-137 -89.5v107q78 18 78 137q0 25 -2 37h-76z" />
<glyph unicode="-" horiz-adv-x="544" d="M51 518v160h443v-160h-443z" />
<glyph unicode="." horiz-adv-x="342" d="M84 0v242h174v-242h-174z" />
<glyph unicode="/" horiz-adv-x="598" d="M10 0l412 1446h166l-406 -1446h-172z" />
<glyph unicode="0" horiz-adv-x="768" d="M57 838q0 29 1 87t1 89q0 100 4 149q16 197 154 267q72 35 166 34q102 0 176 -41q90 -49 120 -142t30 -224q0 -55 1 -166t1 -166q0 -43 -2 -128t-2 -126v-127q0 -215 -107 -299q-84 -63 -213 -63q-115 0 -194 47q-90 51 -112 142t-22 300v57q-3 137 -2 229q-1 46 0 81z M236 848q0 -252 2 -379q0 -145 4 -188q6 -80 49 -113q37 -27 92 -27q102 0 129 72q16 41 16 240v594q0 147 -26 196q-35 59 -117 60q-117 0 -139 -119q-10 -62 -10 -336z" />
<glyph unicode="1" horiz-adv-x="768" d="M76 1135v137q66 0 96 4q84 8 127 47t45 123h152v-1446h-181v1135h-239z" />
<glyph unicode="2" horiz-adv-x="768" d="M70 0v174l299 506q45 78 65 117q49 90 64.5 150.5t15.5 162.5q0 57 -6 82q-23 109 -129 108q-51 0 -86 -34q-20 -23 -30.5 -57.5t-10.5 -50.5v-62v-166h-166v180q0 10 1 30.5t1 28.5q8 182 121 252q72 43 168 43q127 0 193.5 -63.5t91.5 -138.5q23 -72 22 -175 q0 -160 -63 -301q-23 -51 -72 -133l-297 -497h450v-156h-632z" />
<glyph unicode="3" horiz-adv-x="768" d="M61 315q0 18 1 58.5t1 60.5l164 -2q-1 -14 0 -34q0 -39 2 -97q2 -51 11.5 -81t42.5 -54q37 -27 86 -27q59 0 96 29q12 10 22.5 22.5t16.5 30t9 28.5t5 34.5t2 30.5v34v29q0 14 1 44t1 44q0 104 -33 156q-41 61 -153 61q-37 0 -57 -2l2 162q80 0 92 2q57 8 84 35 q51 47 51 170q0 66 -6 133q-6 125 -127 125q-51 0 -80 -29q-45 -45 -45 -186q0 -37 2 -56h-164q-1 29 -1 58t1 59q2 72 13.5 122t48 98t100.5 71q61 20 131 20q100 0 176 -47q66 -43 94.5 -118.5t28.5 -215.5q0 -117 -14.5 -176t-55.5 -94q-29 -25 -98 -43q94 -25 133 -72 q23 -31 35 -71q23 -76 22 -281q0 -102 -24 -170q-27 -74 -98.5 -134t-200.5 -60q-135 0 -227 71q-91 72 -91 262z" />
<glyph unicode="4" horiz-adv-x="768" d="M43 324v198l293 924h252v-969h127v-153h-127v-324h-170v324h-375zM178 477h240l8 807z" />
<glyph unicode="5" horiz-adv-x="768" d="M57 344q0 53 2 80l170 -2q-1 -22 0 -42q0 -130 23 -173q31 -63 123 -64q78 0 117 54q10 14 16 32.5t8 46t3 47t1 64.5v70q0 20 1 62t1 65q0 117 -12 157q-25 92 -125 93q-45 0 -74 -23q-47 -35 -47 -147h-164l23 782h559v-156h-395l-11 -360q4 8 29 24q61 39 145.5 39 t149.5 -47q59 -45 78.5 -119.5t19.5 -230.5q0 -41 -1 -123t-1 -125q-4 -172 -65 -250q-88 -117 -262 -116q-152 0 -236 92q-43 49 -57 102q-19 55 -19 168z" />
<glyph unicode="6" horiz-adv-x="768" d="M70 463v635q0 145 37.5 222t113.5 114q68 31 156 30q193 0 264 -123q23 -35 33 -76q9 -38 9 -73q0 -14 -0.5 -43.5t-0.5 -46.5l-168 2q0 117 -14 145q-33 55 -119 56q-133 0 -141 -156q-2 -33 -2 -197v-110q86 104 200 104q53 0 101 -20q102 -41 137 -140q25 -74 24 -309 q0 -94 -6 -192q-10 -158 -78 -219q-86 -84 -239 -84q-137 0 -213 67q-66 57 -80 138t-14 276zM240 326q0 -80 22 -123q35 -63 123 -63.5t119 69.5q20 45 20 250q0 111 -2 168q-4 80 -24 110q-35 57 -119 58q-92 0 -121 -78q-18 -53 -18 -248v-143z" />
<glyph unicode="7" horiz-adv-x="768" d="M68 1286v160h630v-133q-29 -53 -41 -80q-51 -113 -106 -291q-72 -240 -98.5 -444.5t-32.5 -497.5h-197q16 502 166 940q33 98 129 346h-450z" />
<glyph unicode="8" horiz-adv-x="768" d="M66 342q0 225 18 287q12 45 39 78q39 49 108 63q-20 0 -53 14q-72 35 -88 146q-8 57 -8 186q0 229 125 305q68 43 180 43q176 0 250 -100q55 -72 55 -229q0 -125 -8 -189q-10 -127 -102 -164q-10 -4 -45 -12q61 -12 102 -55q37 -39 50 -95.5t13 -164.5q0 -188 -18 -258 q-33 -133 -154 -185q-74 -31 -155 -30q-98 0 -176 43q-68 39 -100.5 109.5t-32.5 207.5zM242 379q0 -12 1 -37t1 -37q8 -162 139 -162q102 0 131 90q12 41 12 175q0 66 -2 98q0 166 -138 166h-3q-78 0 -111 -51q-12 -16 -18 -38t-7 -32t-2 -44t-1 -36q0 -16 -1 -47t-1 -45z M248 1083q0 -61 2 -92q4 -66 31 -100q37 -45 110 -45q96 0 121 90q6 29 10 162q0 102 -8 131q-22 92 -123 92h-4q-55 0 -88 -27q-51 -43 -51 -211z" />
<glyph unicode="9" horiz-adv-x="768" d="M59 885q0 125 7 254q4 70 10 108.5t30.5 84.5t71.5 79q80 53 201 53q145 0 223 -78q31 -25 57 -79q12 -25 19.5 -49.5t9.5 -63.5t3 -61q1 -11 1 -33t-1 -54q-1 -65 -1 -98q0 -78 -1 -234.5t-1 -234.5v-157q0 -162 -80 -252q-76 -88 -233 -88q-199 0 -273 145 q-27 57 -26 149q0 18 1 53.5t1 51.5h164v-111q4 -70 39 -98q35 -31 98 -31q51 0 84 27q35 27 43 66.5t12 136.5q0 14 1 42.5t1 43.5q0 27 -1 82t-1 84q-96 -90 -209 -91q-129 0 -200 99q-50 72 -50 254zM233 850q0 -45 17 -82q37 -80 129 -80q68 0 104 43q18 23 31 60 q6 27 6 71v275q0 92 -47 137q-35 33 -92 33q-90 0 -129 -80q-8 -16 -11 -33.5t-4 -29t-1 -46.5v-55q0 -14 -1.5 -45t-1.5 -47v-121z" />
<glyph unicode=":" horiz-adv-x="425" d="M168 0v242h176v-242h-176zM168 735v242h176v-242h-176z" />
<glyph unicode=";" horiz-adv-x="425" d="M168 -176q14 6 25.5 12t19.5 16l13 15q5 6 9.5 19.5t6.5 18.5t3 22.5t1 21.5v25v26h-78v242h176v-250q0 -115 -37 -183.5t-139 -89.5v105zM168 745v232h176v-232h-176z" />
<glyph unicode="&#x3c;" horiz-adv-x="1144" d="M180 553v160l733 399v-172l-571 -301l571 -297v-186z" />
<glyph unicode="=" horiz-adv-x="1144" d="M174 371v147h797v-147h-797zM174 719v147h797v-147h-797z" />
<glyph unicode="&#x3e;" horiz-adv-x="1144" d="M231 156v170l572 301l-572 299v184l734 -395v-160z" />
<glyph unicode="?" horiz-adv-x="811" d="M117 954v205q0 109 33 174q35 68 111.5 101.5t158.5 33.5q29 0 61.5 -5t81.5 -21.5t92 -58.5t64 -103q18 -55 18 -145q0 -113 -8 -162q-6 -35 -18.5 -68t-21.5 -49t-45 -73l-54 -87q-29 -45 -41 -69q-29 -61 -29 -146q0 -61 2 -94h-135v80q0 78 3 109.5t23.5 91 t69.5 149.5q45 80 54 101q25 55 24 169q0 10 1 33t1 35q0 39 -8 62q-37 88 -141 88q-41 0 -76 -19q-39 -23 -50.5 -57.5t-11.5 -89.5v-185h-159zM367 0v242h176v-242h-176z" />
<glyph unicode="@" horiz-adv-x="1671" d="M92 473q0 414 261 700.5t636 286.5q279 0 441.5 -158.5t162.5 -429.5q0 -133 -44 -276t-115 -248q-141 -205 -308 -205q-150 0 -157 174q-129 -172 -285 -172q-115 0 -183.5 90.5t-68.5 241.5q0 225 130 404.5t294 179.5q90 0 158 -64q39 -39 65 -110l31 127h133 l-117 -539q-4 -20 -8 -61t-4 -64q0 -84 57 -84q63 0 138 92q78 94 122 228.5t44 271.5q0 236 -129 366t-363 130q-262 0 -465 -178q-176 -156 -254 -416q-45 -158 -45 -291q0 -274 174 -445t453 -171q172 0 348 80.5t309 224.5l64 -84q-47 -47 -72 -70q-289 -256 -655 -256 q-225 0 -400 96q-348 191 -348 629zM592 483q0 -98 37 -151t104 -53q117 0 206 135t89 313q0 90 -43 145.5t-115 55.5q-109 0 -193.5 -135.5t-84.5 -309.5z" />
<glyph unicode="A" horiz-adv-x="811" d="M0 0l311 1446h181l319 -1446h-188l-52 279h-335l-50 -279h-186zM266 434h275l-142 744z" />
<glyph unicode="B" horiz-adv-x="894" d="M102 0v1446h359q176 0 258 -88q82 -90 82 -252q0 -158 -62 -242q-37 -49 -90 -69q-35 -14 -80 -15q78 0 136 -39q119 -78 118 -297q0 -135 -18.5 -207.5t-65.5 -125.5q-47 -57 -108 -82q-51 -20 -103.5 -24.5t-175.5 -4.5h-250zM283 852h123q59 0 88 4q131 25 131 213 q0 131 -56 178q-45 37 -182 37h-104v-432zM283 158h104q24 -1 45 -1q51 0 80 7q68 14 100.5 67.5t32.5 165.5q0 154 -31 213q-20 35 -49 56q-33 20 -66.5 25t-117.5 5h-98v-538z" />
<glyph unicode="C" horiz-adv-x="854" d="M90 508v231q0 162 2 244q4 272 76 367q88 119 285 118q150 0 241 -92q41 -43 58.5 -107.5t17.5 -183.5q0 -63 -2 -94h-166q0 104 -2 157.5t-12 84.5t-43 55q-39 29 -92 29q-135 0 -164 -127q-20 -90 -21 -475q0 -162 6 -324q0 -6 1 -34.5t2.5 -42t3.5 -37t8 -42t14 -32.5 q41 -72 146 -72q57 0 96 31q66 49 65 239v107h168q0 -103 -2 -154q0 -76 -8 -125q-29 -170 -170 -225q-68 -25 -160 -24q-135 0 -219 63q-43 37 -67 74q-39 59 -50.5 142t-11.5 249z" />
<glyph unicode="D" horiz-adv-x="894" d="M102 0v1446h273q186 0 260 -33q137 -61 162 -233q10 -78 10 -383q0 -109 -4 -322q0 -80 -6 -160q-18 -205 -152 -276q-18 -10 -36.5 -16.5t-40.5 -10.5l-37 -7q-15 -3 -41.5 -4t-36.5 -1h-42h-38h-271zM283 160h118q98 0 144 22q55 29 71 109q12 66 13 373q0 297 -2 356 q-2 94 -11.5 140t-40.5 77q-47 43 -200 43h-92v-1120z" />
<glyph unicode="E" horiz-adv-x="811" d="M102 0v1446h637v-162h-456v-430h399v-164h-399v-528h471v-162h-652z" />
<glyph unicode="F" horiz-adv-x="768" d="M102 0v1446h637v-162h-454v-426h395v-158h-395v-700h-183z" />
<glyph unicode="G" horiz-adv-x="894" d="M90 718.5q0 153.5 6 307.5q0 147 23 225q66 217 340 217q147 0 229 -55q27 -18 47 -43q35 -41 49 -90q12 -43 13 -174v-102h-170v71q0 12 -1 37t-1 37q-2 31 -6.5 52.5t-18.5 52t-49 47t-88 16.5q-68 0 -113 -31q-25 -16 -37 -33q-14 -18 -22 -57q-20 -96 -21 -410v-174 q0 -121 6.5 -243.5t20.5 -155.5q41 -86 145 -86q78 0 131 47q31 25 48 64q20 53 20 206v148h-213v156h381v-748h-152v100q-35 -35 -57 -53q-92 -68 -200 -68q-3 0 -7 1q-45 0 -89 10t-102.5 58t-82.5 130q-25 78 -27 311q-2 76 -2 229.5z" />
<glyph unicode="H" horiz-adv-x="894" d="M102 0v1446h181v-615h329v615h181v-1446h-181v674h-329v-674h-181z" />
<glyph unicode="I" horiz-adv-x="382" d="M102 0v1446h179v-1446h-179z" />
<glyph unicode="J" horiz-adv-x="811" d="M39 328v59v49h174v-131q0 -61 18 -96q41 -76 136 -76q160 0 168 182v148v983h180v-973q0 -68 -2 -102v-30q0 -24 -1 -30t-2 -27.5t-2 -29.5l-3.5 -27.5t-6.5 -29t-9 -25.5t-11 -28l-14 -25q-8 -14 -19 -27q-94 -115 -287 -115q-127 0 -211 66q-47 39 -65 76 q-12 20 -20.5 48t-13.5 49.5t-7 59.5t-2 52z" />
<glyph unicode="K" horiz-adv-x="854" d="M102 0v1446h179v-623l372 623h201l-342 -545l342 -901h-201l-256 739l-116 -174v-565h-179z" />
<glyph unicode="L" d="M102 0v1446h185v-1284h424v-162h-609z" />
<glyph unicode="M" horiz-adv-x="1150" d="M102 0v1446h271l202 -1290l199 1290h275v-1446h-166l24 1309l-215 -1309h-227l-215 1309l29 -1309h-177z" />
<glyph unicode="N" horiz-adv-x="894" d="M102 0v1446h248l293 -1266l-25 1266h175v-1446h-254l-283 1253l25 -1253h-179z" />
<glyph unicode="O" horiz-adv-x="894" d="M90 645q0 129 4 391q6 221 78 314q94 119 293 118q221 0 297 -159q29 -57 35 -129q12 -100 12 -286q0 -70 -2 -151q0 -49 -4 -138t-4 -118q0 -43 -4 -129q-18 -223 -109 -303q-88 -76 -250 -75q-199 0 -280 116q-29 39 -43 92q-23 80 -23 457zM274 862q0 -279 2 -418 q0 -166 15 -211q35 -106 155 -106q104 0 142 84q29 63 33 340q2 63 2 192q0 201 -2 301q0 152 -29 201q-41 72 -139 72q-63 0 -107 -35q-47 -39 -59.5 -105.5t-12.5 -213.5v-101z" />
<glyph unicode="P" horiz-adv-x="854" d="M102 0v1446h375q166 0 244 -96q14 -16 24.5 -34t18.5 -38l14 -35q6 -14 9.5 -39.5t5.5 -37t3 -41t1 -38.5v-40v-39q0 -231 -76 -324q-74 -90 -287 -90h-151v-594h-181zM283 752h120q45 0 62.5 1t51.5 7t53.5 25.5t33.5 50.5q16 35 17 161q0 92 -5 140q-4 41 -20 69.5 t-35.5 43t-54.5 22.5t-59.5 9t-69.5 1h-94v-530z" />
<glyph unicode="Q" horiz-adv-x="894" d="M90 594q0 143 4 418q4 217 56 303q88 154 317 153q250 0 311 -198q33 -98 33 -393q0 -193 -10 -435q-6 -193 -35 -268q-14 -39 -37 -70q-37 -57 -84 -79l178 -152l-100 -104l-219 213q-26 -2 -54.5 -2t-60.5 2q-254 18 -287 262q-12 100 -12 350zM274 729q0 -221 2 -330 q0 -8 1.5 -37.5t2.5 -45t3 -40t8 -43t14 -34.5q41 -72 144 -72q106 0 141 76q6 14 11 30.5t8 40t5 41t3 51t2.5 53t1.5 63.5v67l6 194q1 15 0 46q0 90 -4 313q0 215 -170 215q-90 0 -136 -68q-27 -39 -34 -102q-9 -60 -9 -418z" />
<glyph unicode="R" horiz-adv-x="894" d="M102 0v1446h316q188 0 270 -68q113 -92 113 -317q0 -96 -15 -180q-16 -98 -59 -151.5t-121 -74.5l258 -655h-188l-246 635h-149v-635h-179zM281 776h94q113 0 157 17q31 12 51.5 38.5t27.5 68.5t8.5 65.5t1.5 66.5q0 106 -17 154q-12 35 -34.5 56.5t-57.5 29.5t-58.5 9 t-66.5 1h-18h-88v-506z" />
<glyph unicode="S" horiz-adv-x="811" d="M55 340v160h170v-72q0 -143 17 -190q39 -104 161.5 -104.5t165.5 93.5q16 35 17 86q0 57 -20.5 105.5t-41 72t-73.5 78.5l-195 201q-92 96 -129 170t-37 193q0 78 16 137q61 199 320 198q244 0 293 -188q12 -49 12 -168v-92h-160q-2 90 -2 119q0 125 -77 161 q-33 14 -76 15q-70 0 -109 -39q-6 -6 -28 -39q-14 -33 -15 -96q0 -49 12 -84q8 -25 25.5 -51.5t28 -39t43.5 -47l35 -36.5l227 -242q16 -18 45 -55q80 -102 80 -258q0 -199 -131 -287q-90 -61 -226 -61q-256 0 -325 198q-23 66 -23 162z" />
<glyph unicode="T" horiz-adv-x="768" d="M20 1284v162h728v-162h-275v-1284h-178v1284h-275z" />
<glyph unicode="U" horiz-adv-x="894" d="M96 360v1086h183v-959q0 -221 16 -262q23 -59 86 -80q31 -10 72 -10q90 0 131 53q18 25 24 52q8 39 8 178v1028h183v-1079q0 -127 -27 -210t-119 -132q-82 -45 -209 -45q-178 0 -264 83q-37 37 -59 99q-25 71 -25 198z" />
<glyph unicode="V" horiz-adv-x="768" d="M0 1446h184l201 -1268l201 1268h182l-268 -1446h-230z" />
<glyph unicode="W" horiz-adv-x="1280" d="M0 1446h178l178 -1268l170 1268h232l166 -1268l180 1268h176l-244 -1446h-237l-158 1198l-164 -1198h-241z" />
<glyph unicode="X" horiz-adv-x="811" d="M0 0l276 788l-258 658h199l174 -555l162 555h192l-237 -658l303 -788h-195l-221 627l-207 -627h-188z" />
<glyph unicode="Y" horiz-adv-x="811" d="M0 1446h190l216 -723l215 723h190l-317 -860v-586h-187v586z" />
<glyph unicode="Z" horiz-adv-x="768" d="M45 0v147l475 1137h-407v162h610v-137l-483 -1149h483v-160h-678z" />
<glyph unicode="[" horiz-adv-x="641" d="M199 -350v1820h401v-129h-229v-1560h229v-131h-401z" />
<glyph unicode="\" horiz-adv-x="598" d="M10 1446h166l410 -1446h-170z" />
<glyph unicode="]" horiz-adv-x="641" d="M39 -219h231v1560h-231v129h403v-1820h-403v131z" />
<glyph unicode="^" horiz-adv-x="1144" d="M127 733l362 713h164l363 -713h-182l-263 555l-260 -555h-184z" />
<glyph unicode="_" horiz-adv-x="1024" d="M-20 -301h1064v-121h-1064v121z" />
<glyph unicode="`" horiz-adv-x="468" d="M68 1374h223l110 -219h-131z" />
<glyph unicode="a" d="M39 248q0 135 82 217q20 23 45 40l72 49l84 56q70 49 149 123v35q0 143 -125 143q-37 0 -62.5 -13t-36.5 -24.5t-17.5 -40t-6.5 -34.5v-33q0 -25 4 -78h-149q0 59 2 88q2 47 3 68.5t13.5 53.5t34.5 58q74 86 231 86q135 0 207 -73q31 -33 52 -86q12 -41 12 -174v-492 q0 -145 18 -182q4 -10 31 -35h-201v123q-68 -141 -213 -141q-68 0 -123 32q-106 64 -106 234zM207 254q0 -152 110 -152h2q66 0 113 60q39 51 39 170v252q-20 -20 -57 -54q-33 -25 -52 -36q-84 -63 -106 -91q-49 -63 -49 -149z" />
<glyph unicode="b" horiz-adv-x="768" d="M90 0v1446h162v-504q2 2 6 7l7 9q3 4 10.5 10.5t13.5 12.5q68 61 164 61q86 0 137 -39.5t72 -87.5q33 -76 32 -305q0 -203 -4 -305q-8 -147 -33 -199q-20 -45 -71 -84.5t-135 -39.5q-55 0 -103.5 24.5t-63 38.5t-40.5 45v-90h-154zM252 399q0 -174 22 -217 q18 -33 56.5 -53t75.5 -20q90 0 110 96q12 59 12 287q0 115 -2 172q-6 119 -6 120v11q-2 8 -3 13t-4 16.5t-6 19.5t-8 19t-11.5 18.5t-15.5 16.5t-19.5 14.5t-24.5 8.5t-31 3q-31 0 -68.5 -19.5t-58.5 -66.5q-6 -12 -9 -27l-5 -24q-2 -9 -3 -31.5t-1 -31.5v-43v-48v-234z " />
<glyph unicode="c" d="M74 467q0 158 8 283q20 168 80 225q68 68 209 67q178 0 239 -102q31 -49 38 -104.5t7 -182.5h-155q0 88 -4 133q0 53 -21 84q-31 49 -104 50q-102 0 -121 -105q-12 -74 -12 -305q0 -72 4 -215q0 -90 18 -125q31 -59 109 -59q109 0 123 120q8 66 8 150h155 q0 -133 -12 -199.5t-53 -113.5q-74 -86 -234 -86q-190 0 -245 124q-37 78 -37 361z" />
<glyph unicode="d" horiz-adv-x="768" d="M74 504q0 74 4 221q6 115 31 176q29 66 84 105q53 37 118 37q3 0 6 -1q90 0 154 -53q14 -12 41 -45v502h166v-1446h-154v106q-10 -16 -35 -47q-70 -78 -180 -77q-188 0 -221 208q-14 101 -14 314zM238 541q0 -197 2 -236q2 -82 16 -117q35 -78 117 -77q33 0 45 6 q55 16 78 94q16 66 20 299q0 131 -4 197q-4 109 -35 155q-35 53 -104 53q-35 0 -66 -18q-12 -8 -22.5 -19.5t-17.5 -21.5t-12 -28.5t-7 -29t-4 -33t-2 -28.5t-1 -29.5t-1 -25.5q-2 -47 -2 -141z" />
<glyph unicode="e" d="M74 604q0 96 8 176q10 84 30.5 128t57.5 75q70 57 188 57q127 0 197 -55q39 -29 61 -72q10 -18 17.5 -43.5t10.5 -43t5 -53.5t2 -46v-51v-43v-152h-411q-2 -45 -2 -90t2 -90q2 -70 10 -96q27 -90 123 -90q47 0 76 22q49 37 49 170v10h153q1 -28 1 -49.5t-1 -38.5 q-2 -33 -16 -76.5t-43 -78.5q-76 -92 -225 -92q-186 0 -256 137q-10 18 -16.5 38.5t-9.5 35t-5 45.5l-3 45q-1 14 -1 61v70q-2 63 -2 190zM240 612h258v43q0 80 -2 119q-8 141 -127 141q-78 0 -109 -65q-20 -45 -20 -195v-43z" />
<glyph unicode="f" horiz-adv-x="468" d="M10 901v123h121v111q0 168 41 229q55 88 201 88q53 0 86 -12v-142q-43 12 -66 13q-39 0 -63 -21q-27 -23 -32 -53.5t-5 -110.5v-102h166v-123h-166v-901h-162v901h-121z" />
<glyph unicode="g" horiz-adv-x="768" d="M72 565q0 74 2 111q4 186 51 264q59 102 203 102q127 0 198 -108v90h152v-973v-110q-4 -172 -119 -238q-82 -47 -199 -47q-123 0 -198 65q-41 35 -60 78q-20 49 -20 119h151q0 -45 13 -72q10 -23 43 -41t80 -18q55 0 90 23q10 6 18 14t14 18l9 19q4 8 7 21.5t4 20.5 t2 22.5t1 20.5v22v20v118l-18 -24q-70 -88 -189 -88q-121 0 -182 90q-51 74 -51 278q0 35 -1 102.5t-1 100.5zM240 453q0 -127 4 -193q10 -86 49 -117q37 -25 78 -24q90 0 125 82q23 49 22 241v58q0 154 -4 198v20q0 76 -14 116q-31 94 -127 94q-33 0 -70 -23 q-41 -31 -52 -97.5t-11 -195.5v-159z" />
<glyph unicode="h" horiz-adv-x="768" d="M90 0v1446h162v-514q70 86 135 102q25 8 72 8q72 0 125 -36q45 -31 67.5 -90.5t24.5 -96.5t2 -114v-705h-162v616q0 98 -2 148q-6 86 -41 119q-31 31 -84 30q-55 0 -90 -34q-23 -25 -34 -67t-12 -76t-1 -122v-614h-162z" />
<glyph unicode="i" horiz-adv-x="342" d="M90 0v1024h162v-1024h-162zM90 1204v211h162v-211h-162z" />
<glyph unicode="j" horiz-adv-x="342" d="M-96 -342l2 135q2 0 31.5 -1t44 0t36 5t35.5 15q25 14 33 63q4 41 4 184v965h162v-954q0 -108 -2 -164q0 -53 -12 -101q-20 -76 -80 -112.5t-187 -36.5q-12 0 -34.5 1t-32.5 1zM90 1202v213h162v-213h-162z" />
<glyph unicode="k" d="M90 0v1446h162v-887l303 465h188l-276 -397l262 -627h-174l-199 475l-104 -143v-332h-162z" />
<glyph unicode="l" horiz-adv-x="342" d="M88 0v1446h166v-1446h-166z" />
<glyph unicode="m" horiz-adv-x="1193" d="M90 0v1024h154v-100q25 33 45 53q72 66 174 65q115 0 176 -79q2 -2 27 -39q8 16 43 51q68 68 168 67q76 0 129 -36q61 -43 80.5 -105.5t19.5 -152.5v-748h-168v672q0 137 -16 174q-31 70 -111 69q-53 0 -82 -28q-12 -10 -20.5 -23.5t-14.5 -31t-9 -31t-4 -35t-1 -31.5 v-35v-28v-672h-166v672q0 154 -20 188q-35 56 -97 56q-6 0 -12 -1q-55 0 -88 -32q-29 -31 -36 -76t-7 -139v-668h-164z" />
<glyph unicode="n" horiz-adv-x="768" d="M90 0v1024h156v-94q2 2 14 17.5t21 23.5q84 72 186 71q123 0 176 -88q23 -37 29 -84t6 -149v-721h-166v750q0 164 -121 163q-90 0 -123 -86q-14 -37 -14 -165v-662h-164z" />
<glyph unicode="o" d="M74 330v133q0 178 4 266q4 168 74 240q66 74 219 73q78 0 134 -26.5t83.5 -58t43 -85t17.5 -79t2 -66.5q1 -56 1 -112.5t-1 -112.5q0 -131 -4 -197q-2 -76 -10 -115q-35 -209 -279 -208q-174 0 -241 112q-43 76 -43 236zM246 559q0 -41 1 -124t1 -124q0 -98 10 -129 q23 -72 100 -71q92 0 113 106q10 59 10 287q0 150 -2 225q-2 39 -4 61.5t-12 55.5t-33.5 48t-60.5 15q-90 0 -113 -96q-10 -43 -10 -254z" />
<glyph unicode="p" horiz-adv-x="768" d="M90 -326v1350h162l2 -98q84 117 207 116q80 0 137 -45q74 -59 88 -172q8 -66 8 -235q0 -141 -6 -283q-6 -150 -37 -211q-63 -115 -200 -114q-94 0 -156 59q-25 25 -37 45v-412h-168zM260 512q0 -137 4 -205q0 -84 29 -135q35 -68 108 -68q82 0 105 84q10 39 14 197 q4 98 4 150q0 111 -2 165q0 37 -2 56q-8 156 -123 155q-94 0 -123 -112q-14 -51 -14 -287z" />
<glyph unicode="q" horiz-adv-x="768" d="M74 514q0 35 1 105.5t1 107.5q4 147 53 217q72 98 190 98q59 0 105.5 -27.5t61 -47t34.5 -52.5v109h158v-1350h-162v428q-16 -29 -33 -45q-66 -76 -172 -75q-80 0 -137 47q-47 39 -69.5 101.5t-24.5 98t-4 123.5q-2 56 -2 162zM244 500q0 -98 2 -148q0 -10 1 -45t3 -55 q12 -141 121 -141q72 0 112 61q14 20 23 66q13 67 13 206q0 35 -1 74q0 27 -1 57.5t-3 67.5t-2 57q-6 102 -16 129q-32 82 -123 82h-4q-100 0 -119 -114q-6 -47 -6 -297z" />
<glyph unicode="r" horiz-adv-x="512" d="M90 0v1024h158v-193q27 59 47 93q80 119 203 118h26v-172q-78 0 -116 -10q-31 -8 -55.5 -24.5t-40 -33t-27 -47t-16.5 -49t-8 -56.5t-3 -53v-57v-51v-489h-168z" />
<glyph unicode="s" horiz-adv-x="641" d="M35 354h157q0 -33 5 -102q0 -51 14 -78q33 -59 108 -59q53 0 86 34.5t33 88.5q0 43 -16.5 76.5t-32.5 51t-57 52.5l-127 110q-76 68 -109 119t-33 133q0 113 54 181q27 35 88 61q57 20 121 20q129 0 192 -63q29 -31 41 -70q20 -55 21 -186h-146q0 88 -8 115 q-23 74 -100 73q-41 0 -75 -23.5t-34 -88.5q0 -29 12 -54q20 -43 115 -122l117 -97q2 -2 25.5 -22.5t33.5 -30.5q84 -90 84 -211q0 -205 -174 -264q-51 -16 -121 -16q-158 0 -223 94q-31 43 -40 100t-11 178z" />
<glyph unicode="t" horiz-adv-x="468" d="M12 901v123h127v274h164v-274h152v-123h-152v-661q0 -57 19 -86q23 -33 75 -33q29 0 58 8l-2 -133q-43 -14 -93 -14q-121 0 -174 51q-27 25 -39 72t-13 71.5t-1 81.5q0 12 1 38t1 38v567h-123z" />
<glyph unicode="u" horiz-adv-x="768" d="M90 381v643h164v-672q0 -57 2 -86q0 -63 14 -94q29 -68 107 -68q47 0 80 27q37 29 48 77t11 148v668h162v-1024h-158l-2 94q-88 -113 -217 -112q-78 0 -133 45q-39 33 -56.5 88t-19.5 98t-2 168z" />
<glyph unicode="v" horiz-adv-x="641" d="M0 1024h178l135 -840l150 840h178l-235 -1024h-187z" />
<glyph unicode="w" horiz-adv-x="1067" d="M0 1024h178l109 -877l133 877h221l133 -864l121 864h172l-201 -1024h-196l-140 862l-141 -862h-201z" />
<glyph unicode="x" horiz-adv-x="681" d="M0 0l246 549l-213 475h190l111 -336l123 336h184l-215 -475l256 -549h-186l-162 406l-154 -406h-180z" />
<glyph unicode="y" horiz-adv-x="681" d="M12 1024h176l162 -823l131 823h174l-176 -893q-4 -18 -11 -55t-11 -56q-14 -72 -22.5 -107.5t-33 -93t-59.5 -91.5q-63 -61 -195 -62h-106v141q27 -1 54 -1t55 1q29 4 48 9.5t42.5 33t23.5 76.5q0 39 -20 125z" />
<glyph unicode="z" horiz-adv-x="598" d="M18 0v135l385 750h-333v139h505v-139l-382 -750h382v-135h-557z" />
<glyph unicode="{" d="M113 489v142q59 0 94 24q29 18 46 46t23.5 72t7.5 64.5t1 71.5v183q0 150 40 237.5t164 124.5q57 16 181 16v-137l-25 -2q-121 -10 -151.5 -71.5t-30.5 -200.5v-74v-52v-61q0 -12 -2 -55t-7 -59.5t-13.5 -51t-21.5 -51.5l-32 -39q-18 -23 -44 -35t-56 -18v-8 q37 -6 64.5 -23.5t46 -35t31.5 -52.5l21 -54q7 -19 10 -66.5t3 -62.5v-67v-59v-100q0 -123 34.5 -180.5t147.5 -65.5l25 -2v-137h-11q-104 0 -153 12q-74 16 -120 52t-67.5 90.5t-27.5 106.5t-6 130v152q0 57 -1 84.5t-9.5 74.5t-26 69.5t-51 43t-84.5 24.5z" />
<glyph unicode="|" horiz-adv-x="468" d="M152 -512v2044h165v-2044h-165z" />
<glyph unicode="}" d="M113 -213l24 2q119 10 149.5 71.5t30.5 198.5q0 70 5 205q2 59 8 97t22.5 84.5t52 73t89.5 36.5v8q-8 4 -31 11.5t-33 13.5q-23 12 -41 33.5t-30.5 40t-20.5 52.5l-12 52t-6.5 59t-2.5 55v57v48v100q0 123 -34.5 180.5t-145.5 65.5l-24 2v137q82 -2 131 -8t104 -27.5 t89 -68.5t50 -123q6 -31 9.5 -76t3.5 -79.5t-1 -88t-1 -71.5q0 -57 1 -83t9 -75t31.5 -80t60.5 -47q18 -8 70 -12v-142q-49 0 -83 -18t-50.5 -43t-25.5 -68t-11 -72.5t-2 -78.5v-162q0 -66 -2 -103.5t-13.5 -89t-32 -83t-60.5 -60t-97 -45.5q-43 -12 -180 -16v137z" />
<glyph unicode="~" horiz-adv-x="1157" d="M131 612q53 59 88 90q68 55 160 56q70 0 160 -41l110 -49q76 -35 123 -35q80 0 176 106l78 -123q-61 -72 -117 -104q-68 -41 -137.5 -41t-185.5 53l-54 25q-96 45 -155 45q-78 0 -156 -90l-14 -17z" />
<glyph unicode="&#xa1;" horiz-adv-x="425" d="M84 0v457l43 596h92l39 -596v-457h-174zM84 1206v240h174v-240h-174z" />
<glyph unicode="&#xa2;" d="M72 426q0 47 3 123t3 96q6 135 6 143q0 31 14 80q23 78 80 123q43 35 131 51v134h111v-134q106 -14 164 -84q10 -12 19 -27.5t15.5 -34.5l11.5 -32.5t7 -38t4 -35t3 -38t1 -32.5v-34v-29h-153v33q0 59 -5 96q-8 135 -121 136h-4q-100 0 -116 -121q-10 -72 -10 -389 q0 -186 8 -213q12 -43 39 -66q31 -27 75 -27q131 0 131 185q0 12 1.5 32.5t1.5 30.5v21h153q0 -139 -17.5 -216t-74.5 -122q-20 -16 -54 -30.5t-54.5 -19.5t-24.5 -5v-150h-111v150q-190 20 -225 200q-8 37 -10 125q-2 45 -2 119z" />
<glyph unicode="&#xa3;" horiz-adv-x="937" d="M23 160q0 29 10 59q41 113 170 113q68 0 137 -49q3 24 2 50q0 123 -55 292h-203v153h152q-31 86 -41.5 120t-20.5 92.5t-10 127.5q0 199 108 283q86 68 250 67q186 0 262 -118q55 -86 56 -301q0 -33 -2 -52h-179q0 186 -16 234q-14 45 -49 69q-31 20 -86 21 q-84 0 -123 -57.5t-39 -143.5q0 -115 47 -256q16 -45 37 -86h275v-153h-230q43 -172 43 -257q0 -87 -29 -169q2 -2 12.5 -9.5t16.5 -9.5q55 -35 107 -35q61 0 84 52q23 43 22 157q0 61 -6 123h166q2 -46 2 -88q0 -63 -4 -117q-8 -117 -43 -178q-63 -115 -205 -114 q-109 0 -235 98l-12 -11q-7 -7 -12 -13.5t-11 -10.5q-72 -59 -164 -59q-47 0 -78 14q-47 20 -76.5 64.5t-29.5 97.5zM152 172q6 -43 49 -43q55 0 86 51q-49 33 -82 33q-53 0 -53 -41z" />
<glyph unicode="&#xa4;" horiz-adv-x="1284" d="M84 223l147 152q-57 90 -78.5 160.5t-21.5 160.5q0 166 100 318l-143 151l107 113l143 -150q147 104 305 105q162 0 301 -105l148 152l108 -115l-145 -153q98 -160 98 -314q0 -174 -100 -323l145 -156l-108 -113l-148 156q-147 -106 -305 -106q-84 0 -147.5 22.5 t-151.5 83.5l-148 -151zM297 696q0 -164 100.5 -273.5t249.5 -109.5q143 0 240.5 109.5t97.5 269.5q0 166 -97 275.5t-244.5 109.5t-247 -109.5t-99.5 -271.5z" />
<glyph unicode="&#xa5;" horiz-adv-x="811" d="M0 1446h195l211 -733l212 733h193l-254 -711h178v-119h-221l-20 -55v-55h241v-117h-241v-389h-181v389h-239v117h239v55l-18 55h-221v119h176z" />
<glyph unicode="&#xa6;" horiz-adv-x="468" d="M152 389h165v-899h-165v899zM152 631v903h165v-903h-165z" />
<glyph unicode="&#xa7;" horiz-adv-x="854" d="M45 657q0 137 137 265q-80 86 -80 215q0 168 81 245.5t249 77.5q162 0 237.5 -71.5t75.5 -229.5q0 -53 -2 -80h-163q0 49 -1 69.5t-8.5 60.5t-23 57.5t-46 33t-75.5 15.5q-154 0 -154 -160q0 -18 3.5 -35.5t7.5 -30t14 -25.5t15 -21.5t21.5 -19.5t21.5 -15t28 -16l27 -13 q4 -2 29.5 -12.5t29.5 -12.5l147 -63q180 -86 181 -244q0 -82 -32 -141.5t-99 -136.5q51 -59 70.5 -110.5t19.5 -131.5q0 -180 -90.5 -260t-268.5 -80q-172 0 -251.5 84t-79.5 254v78h178v-76q0 -184 162 -184q84 0 128 45t44 129q0 70 -26 108.5t-87 73.5 q-35 18 -151.5 68.5t-157.5 78.5q-111 80 -111 211zM186 709q0 -66 56 -111q25 -20 89 -52t144 -66t103 -46q76 76 75 154q0 29 -12 53.5t-23.5 39.5t-43 33.5t-44 24.5t-53.5 22.5t-45 18.5l-166 72q-80 -75 -80 -143z" />
<glyph unicode="&#xa8;" horiz-adv-x="468" d="M-4 1153v211h162v-211h-162zM313 1153v211h160v-211h-160z" />
<glyph unicode="&#xa9;" horiz-adv-x="1703" d="M123 723q0 305 213 517t516 212q305 0 517 -211t212 -516q0 -309 -211 -520t-520 -211q-303 0 -515 213t-212 516zM197 720.5q0 -274.5 190.5 -466t462.5 -191.5t464.5 191.5t192.5 466.5q0 279 -190.5 470t-464.5 191q-272 0 -463.5 -193.5t-191.5 -468zM596 541v354 q0 119 29 178q59 129 260 129q121 0 190 -53q43 -33 58.5 -84t15.5 -156v-67h-148v63q0 76 -12 113q-20 63 -110 63q-74 0 -101.5 -45t-27.5 -164v-309q0 -119 27.5 -164t101.5 -45q61 0 88 27q16 12 22 37q12 39 12 112v58h148v-60q0 -131 -25 -182q-51 -113 -239 -113 q-137 0 -211 66q-78 68 -78 242z" />
<glyph unicode="&#xaa;" horiz-adv-x="468" d="M31 967q0 31 6 56.5t14 41.5t28.5 35.5t33 30t46.5 34t50 35.5q16 10 38.5 28.5t31.5 24.5v15v17q0 5 -1.5 15.5t-3.5 16.5t-6 13t-10 11.5t-15.5 7.5t-21.5 3h-3q-59 0 -58 -82v-51h-109v61q0 63 10 86q39 92 164 92q61 0 101.5 -20.5t54.5 -58.5t17 -59.5t3 -53.5v-353 q0 -63 43 -110h-155v43q-49 -53 -109 -53h-5q-70 0 -106 49q-38 51 -38 125zM152 965q0 -72 57 -72q76 0 76 156v84q-12 -10 -50 -38t-48.5 -39.5t-22.5 -35.5t-12 -55z" />
<glyph unicode="&#xab;" d="M45 487v177l287 319v-238l-152 -170l152 -172v-239zM379 487v177l285 319v-238l-152 -170l152 -172v-239z" />
<glyph unicode="&#xac;" horiz-adv-x="1144" d="M125 532v150h848v-528h-174v378h-674z" />
<glyph unicode="&#xad;" horiz-adv-x="544" d="M51 518v160h443v-160h-443z" />
<glyph unicode="&#xae;" horiz-adv-x="1703" d="M123 723q0 305 213 517t516 212q305 0 517 -211t212 -516q0 -309 -211 -520t-520 -211q-303 0 -515 213t-212 516zM197 720.5q0 -274.5 190.5 -466t462.5 -191.5t464.5 191.5t192.5 466.5q0 279 -190.5 470t-464.5 191q-272 0 -463.5 -193.5t-191.5 -468zM614 256v920 h195q180 0 242 -37q45 -29 64.5 -80t19.5 -146q0 -121 -33 -176t-123 -84l195 -397h-164l-181 387h-67v-387h-148zM762 760h47q109 0 143.5 29.5t34.5 123.5q0 92 -33 121q-25 23 -151 23h-41v-297z" />
<glyph unicode="&#xaf;" horiz-adv-x="468" d="M12 1178v131h445v-131h-445z" />
<glyph unicode="&#xb0;" d="M33 1216.5q0 137.5 96 233.5t233 96q139 0 234.5 -95t95.5 -234q0 -137 -96 -234.5t-233.5 -97.5t-233.5 97t-96 234.5zM201 1221q0 -66 48 -114t113 -48q68 0 115 47t47 114.5t-47 114.5t-114.5 47t-114.5 -46.5t-47 -114.5z" />
<glyph unicode="&#xb1;" horiz-adv-x="1144" d="M172 0v150h803v-150h-803zM172 606v150h317v348h168v-348h318v-150h-318v-346h-168v346h-317z" />
<glyph unicode="&#xb2;" horiz-adv-x="512" d="M45 543v123l182 309q8 12 25.5 40.5t21.5 37.5l16 29q11 22 13 32t7 28.5t6 37t1 43.5v6q0 100 -69 100q-31 0 -46.5 -22.5t-16.5 -38t-1 -47.5v-115h-129v123q0 84 19.5 130t68.5 75q41 25 109 24q88 -2 143.5 -59.5t55.5 -184.5t-84 -268l-170 -280h264v-123h-416z" />
<glyph unicode="&#xb3;" horiz-adv-x="512" d="M41 745v89h129v-48v-21v-25q0 -7 2 -22.5t6 -23.5t11.5 -18t20.5 -14.5t30 -4.5q39 0 58 22.5t21.5 48.5t2.5 85v25q0 59 -18.5 88.5t-80.5 29.5q-8 0 -24.5 -1t-26.5 -1v127q8 0 22.5 -1t22.5 -1q47 0 70.5 22.5t23.5 90.5q0 53 -2 76.5t-17.5 44t-45.5 20.5 q-61 0 -62 -116v-48h-129v58v8q-4 223 195 223q197 0 196 -246q0 -109 -24 -145q-16 -25 -47 -45q31 -14 47 -35q37 -47 37 -217q0 -63 -13 -104q-20 -59 -67 -92t-72.5 -37.5t-50.5 -4.5h-11q-57 0 -104 21q-55 29 -77.5 69.5t-22.5 122.5z" />
<glyph unicode="&#xb4;" horiz-adv-x="468" d="M68 1155l108 219h225l-200 -219h-133z" />
<glyph unicode="&#xb5;" horiz-adv-x="768" d="M90 -326v1350h164v-709q0 -106 16 -147q27 -63 109 -64q72 0 104.5 55.5t32.5 178.5v686h162v-858q0 -70 10 -103.5t39 -62.5h-207v96q-45 -68 -76.5 -91t-76.5 -23q-59 0 -113 53v-361h-164z" />
<glyph unicode="&#xb6;" horiz-adv-x="1294" d="M176 1036q0 197 121 307q63 59 141 81t224 22h360v-129h-70v-1659h-118v1659h-248v-1659h-119v995q-291 74 -291 383z" />
<glyph unicode="&#xb7;" horiz-adv-x="342" d="M84 428v242h174v-242h-174z" />
<glyph unicode="&#xb8;" horiz-adv-x="468" d="M43 -403l27 49q76 -29 112 -29q43 0 81 28.5t38 73.5q0 33 -23.5 56.5t-56.5 21.5q-27 0 -61 -26l-43 16l76 223h57l-57 -162q57 20 92 21q59 0 100 -36t41 -95q0 -41 -27 -86q-63 -96 -196 -96q-72 0 -160 41z" />
<glyph unicode="&#xb9;" horiz-adv-x="512" d="M53 1229v112h24h28q7 0 26 2.5t27 5.5t21.5 10t19.5 17t11 25.5t5 34.5v10h121v-903h-139v686h-144z" />
<glyph unicode="&#xba;" horiz-adv-x="468" d="M47 1040v95q0 82 2 131q2 29 4 42t12.5 48t28 52t54 33.5t85.5 16.5q35 0 63 -6t47 -19.5t33.5 -25.5t22.5 -37l14 -40q5 -15 7 -47t3 -44q1 -6 0.5 -18t-0.5 -29q-1 -35 -1 -43v-14q0 -84 -2 -134q-4 -121 -58 -167q-45 -39 -123 -39h-8q-72 2 -104 22q-51 31 -65.5 77 t-14.5 146zM178 1137q0 -199 12 -215q18 -27 43 -27q14 0 24.5 5t17 14.5t9.5 17.5t3 16l2 8l2 33q0 33 1 76t1 72q0 21 -1 60.5t-1 59.5q0 27 -1 42.5t-15.5 34t-41.5 18.5q-31 0 -47 -33q-8 -12 -8 -182z" />
<glyph unicode="&#xbb;" d="M61 164v239l152 172l-152 170v238l287 -319v-177zM393 164v239l152 172l-152 170v238l287 -319v-177z" />
<glyph unicode="&#xbc;" horiz-adv-x="1280" d="M53 1229v112h24h28q7 0 26 2.5t27 5.5t21.5 10t19.5 17t11 25.5t5 34.5v10h121v-903h-139v686h-144zM238 0l710 1446h94l-704 -1446h-100zM805 197v137l180 571h178v-588h78v-120h-78v-197h-131v197h-227zM920 317h112l2 377z" />
<glyph unicode="&#xbd;" horiz-adv-x="1280" d="M53 1229v112h24h28q7 0 26 2.5t27 5.5t21.5 10t19.5 17.5t11 25.5t5 34v10h121v-903h-139v686h-144zM209 0l713 1446h92l-705 -1446h-100zM813 0v123l182 309q6 12 21.5 38t20.5 33t15.5 26.5t13.5 27.5t8 24.5t6 30t3 32t2 38.5v6q0 98 -69 98q-31 0 -46.5 -22.5 t-16.5 -37.5t-1 -48v-115h-129v123q0 84 19.5 130t68.5 75q41 25 109 24q88 -2 143.5 -59t55.5 -184t-84 -269l-170 -280h264v-123h-416z" />
<glyph unicode="&#xbe;" horiz-adv-x="1280" d="M41 745v89h129v-48v-21v-25q0 -7 2 -22.5t6 -23.5t11.5 -18t20.5 -14.5t30 -4.5q39 0 58 22.5t21.5 48.5t2.5 85v25q0 59 -18.5 88.5t-80.5 29.5q-8 0 -24.5 -1t-26.5 -1v127q8 0 22.5 -1t22.5 -1q47 0 70.5 22.5t23.5 90.5q0 53 -2 76.5t-17.5 44t-45.5 20.5 q-61 0 -62 -116v-48h-129v58v8q-4 223 195 223q197 0 196 -246q0 -109 -24 -145q-16 -25 -47 -45q31 -14 47 -35q37 -47 37 -217q0 -63 -13 -104q-20 -59 -67 -92t-72.5 -37.5t-50.5 -4.5h-11q-57 0 -104 21q-55 29 -77.5 69.5t-22.5 122.5zM270 0l713 1446h92l-704 -1446 h-101zM805 197v137l180 571h178v-588h78v-120h-78v-197h-131v197h-227zM920 317h112l2 377z" />
<glyph unicode="&#xbf;" horiz-adv-x="811" d="M74 269v44q0 113 8 166q6 33 18.5 63.5t22.5 49t45 73.5l53 85q33 55 37 63q33 66 33 154q0 16 -1 46.5t-1 45.5h135v-80q0 -111 -15.5 -169t-91.5 -196q-35 -63 -43 -84q-25 -55 -26 -174q0 -10 -1 -30.5t-1 -30.5q0 -33 10 -62q33 -92 141 -92q43 0 78 21q57 33 57 145 v187h160v-207q0 -109 -30 -170q-35 -70 -111 -103.5t-162 -33.5q-96 0 -174 40q-43 23 -72.5 60t-43 62.5t-19.5 72.5t-6 54zM268 1206v240h174v-240h-174z" />
<glyph unicode="&#xc0;" horiz-adv-x="811" d="M0 0l311 1446h181l319 -1446h-188l-52 279h-335l-50 -279h-186zM166 1784h223l109 -219h-133zM266 434h275l-142 744z" />
<glyph unicode="&#xc1;" horiz-adv-x="811" d="M0 0l311 1446h181l319 -1446h-188l-52 279h-335l-50 -279h-186zM266 434h275l-142 744zM315 1565l109 219h223l-201 -219h-131z" />
<glyph unicode="&#xc2;" horiz-adv-x="811" d="M0 0l311 1446h181l319 -1446h-188l-52 279h-335l-50 -279h-186zM143 1565l207 219h133l203 -219h-180l-109 123l-116 -123h-138zM266 434h275l-142 744z" />
<glyph unicode="&#xc3;" horiz-adv-x="811" d="M0 0l311 1446h181l319 -1446h-188l-52 279h-335l-50 -279h-186zM150 1575q0 92 55 143q25 23 51 33q18 8 47 8q51 0 156 -43q53 -20 78 -20q47 0 55 61h74q-2 -35 -13 -69q-39 -113 -141 -113q-41 0 -162 47l-12 4q-12 4 -29.5 8t-29.5 4q-47 0 -58 -63h-71zM266 434h275 l-142 744z" />
<glyph unicode="&#xc4;" horiz-adv-x="811" d="M0 0l311 1446h181l319 -1446h-188l-52 279h-335l-50 -279h-186zM139 1565v219h170v-219h-170zM266 434h275l-142 744zM504 1565v219h170v-219h-170z" />
<glyph unicode="&#xc5;" horiz-adv-x="811" d="M0 0l311 1446h181l319 -1446h-188l-52 279h-335l-50 -279h-186zM242 1695.5q0 67.5 49 116t116.5 48.5t115.5 -48.5t48 -116t-48 -115.5t-117 -48q-68 0 -116 48t-48 115.5zM266 434h275l-142 744zM354.5 1644.5q22.5 -22.5 53 -22.5t52 21.5t21.5 54.5q0 31 -21.5 52.5 t-53.5 21.5q-31 0 -54 -23q-21 -21 -20 -48q0 -34 22.5 -56.5z" />
<glyph unicode="&#xc6;" horiz-adv-x="1280" d="M0 0l510 1446h702v-162h-426v-430h365v-164h-365v-528h453v-162h-631v317h-313l-107 -317h-188zM348 473h260v791z" />
<glyph unicode="&#xc7;" horiz-adv-x="854" d="M90 543v188q0 176 1 242.5t9.5 159t26.5 141.5q31 82 96 129q92 66 230 65q111 0 196 -55q72 -49 96.5 -121.5t24.5 -210.5q0 -57 -2 -90h-166v53q0 152 -18 195q-14 33 -45 55.5t-86 22.5q-43 0 -75 -12.5t-49.5 -35t-26.5 -41t-15 -44.5q-18 -76 -19 -465 q0 -371 13 -445q0 -41 26 -77q49 -66 142 -66q51 0 90 25q31 23 47 60.5t18 65t4 83.5q2 33 2 90v53h168v-47q0 -106 -2 -154.5t-12 -101.5t-35 -94q-37 -66 -127 -103q-59 -23 -141 -31l-25 3l-41 -119q49 20 92 20q57 0 98.5 -35.5t41.5 -95.5q0 -63 -56.5 -121.5 t-160.5 -60.5h-7q-71 0 -157 41l26 49q57 -29 111 -29q57 0 88 34t31 66.5t-23.5 56.5t-56.5 24q-35 0 -62 -27l-41 14l60 183q-195 37 -256 192q-12 31 -19.5 80t-10.5 147.5t-3 143.5z" />
<glyph unicode="&#xc8;" horiz-adv-x="811" d="M102 0v1446h637v-162h-456v-430h399v-164h-399v-528h471v-162h-652zM166 1784h223l109 -219h-133z" />
<glyph unicode="&#xc9;" horiz-adv-x="811" d="M102 0v1446h637v-162h-456v-430h399v-164h-399v-528h471v-162h-652zM315 1565l109 219h223l-201 -219h-131z" />
<glyph unicode="&#xca;" horiz-adv-x="811" d="M102 0v1446h637v-162h-456v-430h399v-164h-399v-528h471v-162h-652zM133 1565l207 219h133l201 -219h-178l-109 123l-119 -123h-135z" />
<glyph unicode="&#xcb;" horiz-adv-x="811" d="M102 0v1446h637v-162h-456v-430h399v-164h-399v-528h471v-162h-652zM139 1565v219h170v-219h-170zM504 1565v219h170v-219h-170z" />
<glyph unicode="&#xcc;" horiz-adv-x="382" d="M-47 1784h223l109 -219h-133zM102 0v1446h179v-1446h-179z" />
<glyph unicode="&#xcd;" horiz-adv-x="382" d="M102 0v1446h179v-1446h-179zM102 1565l109 219h223l-201 -219h-131z" />
<glyph unicode="&#xce;" horiz-adv-x="382" d="M-82 1565l209 219h133l201 -219h-178l-109 123l-119 -123h-137zM102 0v1446h179v-1446h-179z" />
<glyph unicode="&#xcf;" horiz-adv-x="382" d="M-74 1565v219h170v-219h-170zM102 0v1446h179v-1446h-179zM291 1565v219h170v-219h-170z" />
<glyph unicode="&#xd0;" horiz-adv-x="894" d="M2 727v131h100v588h273q57 0 81.5 -1t80 -6t85 -19.5t68.5 -39t63.5 -66.5t37.5 -100q8 -43 12 -192q2 -74 2 -201v-313q0 -149 -4 -199q-4 -53 -15 -86q-49 -168 -213 -211q-53 -12 -200 -12h-271v727h-100zM283 160h88q129 0 178 23.5t67 111.5q12 61 13 385 q0 440 -19 496q-14 45 -41 67q-45 37 -194 37h-92v-422h180v-131h-180v-567z" />
<glyph unicode="&#xd1;" horiz-adv-x="894" d="M102 0v1446h248l293 -1266l-25 1266h175v-1446h-254l-283 1253l25 -1253h-179zM190 1575q8 100 58 143q23 23 51 33q18 8 47 8q51 0 156 -43q53 -20 78 -20q47 0 55 61h74q-4 -45 -13 -69q-16 -51 -53 -82t-88 -31q-39 0 -164 47l-12 4q-12 4 -28.5 8t-28.5 4 q-20 0 -33 -10t-17 -20.5t-8 -32.5h-74z" />
<glyph unicode="&#xd2;" horiz-adv-x="894" d="M90 645q0 129 4 391q6 221 78 314q94 119 293 118q221 0 297 -159q29 -57 35 -129q12 -100 12 -286q0 -70 -2 -151q0 -49 -4 -138t-4 -118q0 -43 -4 -129q-18 -223 -109 -303q-88 -76 -250 -75q-199 0 -280 116q-29 39 -43 92q-23 80 -23 457zM209 1784h223l107 -219 h-131zM274 862q0 -279 2 -418q0 -166 15 -211q35 -106 155 -106q104 0 142 84q29 63 33 340q2 63 2 192q0 201 -2 301q0 152 -29 201q-41 72 -139 72q-63 0 -107 -35q-47 -39 -59.5 -105.5t-12.5 -213.5v-101z" />
<glyph unicode="&#xd3;" horiz-adv-x="894" d="M90 645q0 129 4 391q6 221 78 314q94 119 293 118q221 0 297 -159q29 -57 35 -129q12 -100 12 -286q0 -70 -2 -151q0 -49 -4 -138t-4 -118q0 -43 -4 -129q-18 -223 -109 -303q-88 -76 -250 -75q-199 0 -280 116q-29 39 -43 92q-23 80 -23 457zM274 862q0 -279 2 -418 q0 -166 15 -211q35 -106 155 -106q104 0 142 84q29 63 33 340q2 63 2 192q0 201 -2 301q0 152 -29 201q-41 72 -139 72q-63 0 -107 -35q-47 -39 -59.5 -105.5t-12.5 -213.5v-101zM358 1565l109 219h223l-201 -219h-131z" />
<glyph unicode="&#xd4;" horiz-adv-x="894" d="M90 645q0 129 4 391q6 221 78 314q94 119 293 118q221 0 297 -159q29 -57 35 -129q12 -100 12 -286q0 -70 -2 -151q0 -49 -4 -138t-4 -118q0 -43 -4 -129q-18 -223 -109 -303q-88 -76 -250 -75q-199 0 -280 116q-29 39 -43 92q-23 80 -23 457zM174 1565l209 219h133 l201 -219h-178l-109 123l-119 -123h-137zM274 862q0 -279 2 -418q0 -166 15 -211q35 -106 155 -106q104 0 142 84q29 63 33 340q2 63 2 192q0 201 -2 301q0 152 -29 201q-41 72 -139 72q-63 0 -107 -35q-47 -39 -59.5 -105.5t-12.5 -213.5v-101z" />
<glyph unicode="&#xd5;" horiz-adv-x="894" d="M90 645q0 129 4 391q6 221 78 314q94 119 293 118q221 0 297 -159q29 -57 35 -129q12 -100 12 -286q0 -70 -2 -151q0 -49 -4 -138t-4 -118q0 -43 -4 -129q-18 -223 -109 -303q-88 -76 -250 -75q-199 0 -280 116q-29 39 -43 92q-23 80 -23 457zM190 1575q8 100 58 143 q23 23 51 33q18 8 47 8q51 0 156 -43q53 -20 78 -20q47 0 55 61h74q-4 -45 -13 -69q-16 -51 -53 -82t-88 -31q-39 0 -164 47l-12 4q-12 4 -28.5 8t-28.5 4q-20 0 -33 -10t-17 -20.5t-8 -32.5h-74zM274 862q0 -279 2 -418q0 -166 15 -211q35 -106 155 -106q104 0 142 84 q29 63 33 340q2 63 2 192q0 201 -2 301q0 152 -29 201q-41 72 -139 72q-63 0 -107 -35q-47 -39 -59.5 -105.5t-12.5 -213.5v-101z" />
<glyph unicode="&#xd6;" horiz-adv-x="894" d="M90 645q0 129 4 391q6 221 78 314q94 119 293 118q221 0 297 -159q29 -57 35 -129q12 -100 12 -286q0 -70 -2 -151q0 -49 -4 -138t-4 -118q0 -43 -4 -129q-18 -223 -109 -303q-88 -76 -250 -75q-199 0 -280 116q-29 39 -43 92q-23 80 -23 457zM182 1565v219h170v-219 h-170zM274 862q0 -279 2 -418q0 -166 15 -211q35 -106 155 -106q104 0 142 84q29 63 33 340q2 63 2 192q0 201 -2 301q0 152 -29 201q-41 72 -139 72q-63 0 -107 -35q-47 -39 -59.5 -105.5t-12.5 -213.5v-101zM547 1565v219h170v-219h-170z" />
<glyph unicode="&#xd7;" horiz-adv-x="1142" d="M223 854l119 115l238 -244l221 246l104 -103l-225 -247l235 -244l-112 -121l-234 242l-215 -242l-108 98l223 248z" />
<glyph unicode="&#xd8;" horiz-adv-x="894" d="M37 41l76 152q-23 131 -23 391q0 139 4 413q2 227 56 318q92 154 307 153q127 0 209 -49q14 -10 43 -33l41 78l73 -39l-57 -116q18 -47 22 -68q20 -84 21 -432q0 -74 -4 -221q-6 -211 -6 -213q-14 -240 -119 -326q-86 -70 -244 -69q-143 0 -229 63q-23 18 -49 49l-45 -92 zM274 518l338 674q-10 43 -26 68q-43 57 -131 57q-123 0 -160 -115q-20 -63 -21 -371v-313zM276 334q4 -135 72 -180q43 -27 101 -27q137 0 159 149q6 39 15 334q4 180 4 267q0 27 -1 77t-1 74z" />
<glyph unicode="&#xd9;" horiz-adv-x="894" d="M96 360v1086h183v-959q0 -221 16 -262q23 -59 86 -80q31 -10 72 -10q90 0 131 53q18 25 24 52q8 39 8 178v1028h183v-1079q0 -127 -27 -210t-119 -132q-82 -45 -209 -45q-178 0 -264 83q-37 37 -59 99q-25 71 -25 198zM209 1784h223l107 -219h-131z" />
<glyph unicode="&#xda;" horiz-adv-x="894" d="M96 360v1086h183v-959q0 -221 16 -262q23 -59 86 -80q31 -10 72 -10q90 0 131 53q18 25 24 52q8 39 8 178v1028h183v-1079q0 -127 -27 -210t-119 -132q-82 -45 -209 -45q-178 0 -264 83q-37 37 -59 99q-25 71 -25 198zM358 1565l109 219h223l-201 -219h-131z" />
<glyph unicode="&#xdb;" horiz-adv-x="894" d="M96 360v1086h183v-959q0 -221 16 -262q23 -59 86 -80q31 -10 72 -10q90 0 131 53q18 25 24 52q8 39 8 178v1028h183v-1079q0 -127 -27 -210t-119 -132q-82 -45 -209 -45q-178 0 -264 83q-37 37 -59 99q-25 71 -25 198zM174 1565l209 219h133l201 -219h-178l-109 123 l-119 -123h-137z" />
<glyph unicode="&#xdc;" horiz-adv-x="894" d="M96 360v1086h183v-959q0 -221 16 -262q23 -59 86 -80q31 -10 72 -10q90 0 131 53q18 25 24 52q8 39 8 178v1028h183v-1079q0 -127 -27 -210t-119 -132q-82 -45 -209 -45q-178 0 -264 83q-37 37 -59 99q-25 71 -25 198zM182 1565v219h170v-219h-170zM547 1565v219h170 v-219h-170z" />
<glyph unicode="&#xdd;" horiz-adv-x="811" d="M0 1446h190l216 -723l215 723h190l-317 -860v-586h-187v586zM336 1565l108 219h224l-199 -219h-133z" />
<glyph unicode="&#xde;" horiz-adv-x="854" d="M102 0v1446h181v-240h116q137 0 208 -21.5t124 -88.5q14 -18 24.5 -40t17.5 -39.5t12.5 -45t8.5 -40.5t4 -45t1 -40v-43v-37q0 -111 -18.5 -187.5t-48.5 -120.5t-80 -67.5t-99 -31t-123 -7.5h-147v-352h-181zM283 512h120q96 0 121 10q35 14 55.5 31.5t28.5 51.5 t10.5 61.5t2.5 89.5q0 133 -17.5 190.5t-87.5 81.5q-37 12 -139 12h-94v-528z" />
<glyph unicode="&#xdf;" horiz-adv-x="811" d="M90 0v1157q0 166 80 229q74 66 211 66q215 0 272 -154q20 -49 21 -155q0 -63 -13.5 -106.5t-41 -66t-50 -32.5t-59.5 -20q51 -10 80 -25q100 -45 115 -166q12 -70 12 -217q0 -55 -4 -166q-4 -119 -23 -172q-41 -125 -162 -164q-41 -14 -98 -14q-37 0 -84 8v139 q43 -10 70 -10q80 0 108 64q25 57 25 239q0 102 -6 207q-6 113 -31 150q-33 49 -121 49q-6 0 -22.5 -1t-22.5 -1v145q111 0 139.5 30.5t28.5 123.5q0 82 -18 118q-29 59 -113 60q-70 0 -100 -41q-12 -16 -19 -39q-8 -29 -8 -180v-1055h-166z" />
<glyph unicode="&#xe0;" d="M39 248q0 135 82 217q20 23 45 40l72 49l84 56q70 49 149 123v35q0 143 -125 143q-37 0 -62.5 -13t-36.5 -24.5t-17.5 -40t-6.5 -34.5v-33q0 -25 4 -78h-149q0 59 2 88q2 47 3 68.5t13.5 53.5t34.5 58q74 86 231 86q135 0 207 -73q31 -33 52 -86q12 -41 12 -174v-492 q0 -145 18 -182q4 -10 31 -35h-201v123q-68 -141 -213 -141q-68 0 -123 32q-106 64 -106 234zM135 1374h223l109 -219h-131zM207 254q0 -152 110 -152h2q66 0 113 60q39 51 39 170v252q-20 -20 -57 -54q-33 -25 -52 -36q-84 -63 -106 -91q-49 -63 -49 -149z" />
<glyph unicode="&#xe1;" d="M39 248q0 135 82 217q20 23 45 40l72 49l84 56q70 49 149 123v35q0 143 -125 143q-37 0 -62.5 -13t-36.5 -24.5t-17.5 -40t-6.5 -34.5v-33q0 -25 4 -78h-149q0 59 2 88q2 47 3 68.5t13.5 53.5t34.5 58q74 86 231 86q135 0 207 -73q31 -33 52 -86q12 -41 12 -174v-492 q0 -145 18 -182q4 -10 31 -35h-201v123q-68 -141 -213 -141q-68 0 -123 32q-106 64 -106 234zM207 254q0 -152 110 -152h2q66 0 113 60q39 51 39 170v252q-20 -20 -57 -54q-33 -25 -52 -36q-84 -63 -106 -91q-49 -63 -49 -149zM272 1155l109 219h223l-201 -219h-131z" />
<glyph unicode="&#xe2;" d="M39 248q0 135 82 217q20 23 45 40l72 49l84 56q70 49 149 123v35q0 143 -125 143q-37 0 -62.5 -13t-36.5 -24.5t-17.5 -40t-6.5 -34.5v-33q0 -25 4 -78h-149q0 59 2 88q2 47 3 68.5t13.5 53.5t34.5 58q74 86 231 86q135 0 207 -73q31 -33 52 -86q12 -41 12 -174v-492 q0 -145 18 -182q4 -10 31 -35h-201v123q-68 -141 -213 -141q-68 0 -123 32q-106 64 -106 234zM100 1153l209 225h133l201 -225h-178l-111 129l-116 -129h-138zM207 254q0 -152 110 -152h2q66 0 113 60q39 51 39 170v252q-20 -20 -57 -54q-33 -25 -52 -36q-84 -63 -106 -91 q-49 -63 -49 -149z" />
<glyph unicode="&#xe3;" d="M39 248q0 135 82 217q20 23 45 40l72 49l84 56q70 49 149 123v35q0 143 -125 143q-37 0 -62.5 -13t-36.5 -24.5t-17.5 -40t-6.5 -34.5v-33q0 -25 4 -78h-149q0 59 2 88q2 47 3 68.5t13.5 53.5t34.5 58q74 86 231 86q135 0 207 -73q31 -33 52 -86q12 -41 12 -174v-492 q0 -145 18 -182q4 -10 31 -35h-201v123q-68 -141 -213 -141q-68 0 -123 32q-106 64 -106 234zM106 1165q0 90 56 144q29 25 51 32q25 8 47 9q43 0 156 -43q53 -20 80 -21q45 0 53 62h74q-2 -43 -11 -70q-6 -20 -18 -40.5t-46 -46.5t-79 -26q-23 0 -51.5 8.5t-65.5 21.5 t-47 17q-47 16 -69 17q-10 0 -19.5 -3t-14.5 -8.5l-9.5 -10.5t-6.5 -12t-3 -11l-3 -13v-6h-74zM207 254q0 -152 110 -152h2q66 0 113 60q39 51 39 170v252q-20 -20 -57 -54q-33 -25 -52 -36q-84 -63 -106 -91q-49 -63 -49 -149z" />
<glyph unicode="&#xe4;" d="M39 248q0 135 82 217q20 23 45 40l72 49l84 56q70 49 149 123v35q0 143 -125 143q-37 0 -62.5 -13t-36.5 -24.5t-17.5 -40t-6.5 -34.5v-33q0 -25 4 -78h-149q0 59 2 88q2 47 3 68.5t13.5 53.5t34.5 58q74 86 231 86q135 0 207 -73q31 -33 52 -86q12 -41 12 -174v-492 q0 -145 18 -182q4 -10 31 -35h-201v123q-68 -141 -213 -141q-68 0 -123 32q-106 64 -106 234zM117 1153v211h162v-211h-162zM207 254q0 -152 110 -152h2q66 0 113 60q39 51 39 170v252q-20 -20 -57 -54q-33 -25 -52 -36q-84 -63 -106 -91q-49 -63 -49 -149zM436 1153v211 h158v-211h-158z" />
<glyph unicode="&#xe5;" d="M39 248q0 135 82 217q20 23 45 40l72 49l84 56q70 49 149 123v35q0 143 -125 143q-37 0 -62.5 -13t-36.5 -24.5t-17.5 -40t-6.5 -34.5v-33q0 -25 4 -78h-149q0 59 2 88q2 47 3 68.5t13.5 53.5t34.5 58q74 86 231 86q135 0 207 -73q31 -33 52 -86q12 -41 12 -174v-492 q0 -145 18 -182q4 -10 31 -35h-201v123q-68 -141 -213 -141q-68 0 -123 32q-106 64 -106 234zM193 1288.5q0 67.5 48 115.5t117 48q68 0 117 -48q47 -46 47 -112q0 -73 -49 -121.5t-116.5 -48.5t-115.5 49.5t-48 117zM207 254q0 -152 110 -152h2q66 0 113 60q39 51 39 170 v252q-20 -20 -57 -54q-33 -25 -52 -36q-84 -63 -106 -91q-49 -63 -49 -149zM283 1288q0 -33 21.5 -53.5t53.5 -20.5q29 0 51.5 21.5t22.5 52.5q0 29 -16.5 46.5t-31.5 22.5t-28 5q-16 0 -26 -4q-47 -21 -47 -70z" />
<glyph unicode="&#xe6;" horiz-adv-x="1110" d="M68 242q0 129 63 202q16 20 39 39t41 31l59 40l72 48l141 109v65q0 135 -114 135q-43 0 -72 -22q-47 -39 -47 -166v-33h-150v45q0 35 1 53.5t4.5 47t10.5 52t17 44.5q57 111 225 110q94 0 158 -34q27 -18 45 -33q10 8 24.5 17t16.5 12q68 39 158 38q92 0 160 -43 q35 -23 58 -54.5t34.5 -56t16.5 -74.5t5 -68v-76v-187h-399v-227q0 -82 37 -116t88 -34q39 0 63 19q53 35 54 127q2 18 2 53v27h155v-35q0 -100 -22 -160q-23 -63 -87.5 -109t-176.5 -46q-135 0 -224 96q-57 -53 -102 -74.5t-115 -21.5q-92 0 -146.5 42t-74.5 95 q-18 45 -18 123zM225 252q0 -59 31 -99t88 -40q72 0 111 59q29 41 28 143l-2 236q-49 -37 -75 -55l-34 -24l-35 -25q-7 -5 -28.5 -23t-28.5 -28l-22 -27q-14 -18 -18 -34l-9.5 -37t-5.5 -46zM635 616h246v109q0 74 -13 111q-27 80 -114 79q-41 0 -72 -24 q-18 -14 -28.5 -31.5t-14.5 -48.5t-4 -39v-47v-109z" />
<glyph unicode="&#xe7;" d="M74 481q0 84 1 129t4 109.5t11 98.5t22.5 78t36 65.5t53 43t73.5 29.5t98 8q78 0 132 -20.5t82.5 -50t45 -81.5t19.5 -95t3 -111v-31h-155q0 166 -21 207q-25 57 -104 60h-4q-95 0 -121 -97q-12 -47 -12 -280v-31q0 -258 8 -293q0 -35 24 -63q33 -45 95 -45h5 q79 0 104 57q26 59 26 188v25h155v-29q0 -166 -32 -231q-72 -139 -242 -139l-39 -121q47 20 92 20q57 0 97 -35.5t42 -95.5q0 -66 -56 -123t-163 -59h-6q-69 0 -155 41l24 49q61 -29 113 -29q57 0 86.5 33t29.5 68q2 33 -21.5 56.5t-55.5 23.5q-35 0 -62 -27l-43 14l64 185 q-47 6 -83 16t-62.5 30.5t-45 39t-31 57.5t-18.5 66.5t-9 84t-4 94t-1 111.5z" />
<glyph unicode="&#xe8;" d="M74 604q0 96 8 176q10 84 30.5 128t57.5 75q70 57 188 57q127 0 197 -55q39 -29 61 -72q10 -18 17.5 -43.5t10.5 -43t5 -53.5t2 -46v-51v-43v-152h-411q-2 -45 -2 -90t2 -90q2 -70 10 -96q27 -90 123 -90q47 0 76 22q49 37 49 170v10h153q1 -28 1 -49.5t-1 -38.5 q-2 -33 -16 -76.5t-43 -78.5q-76 -92 -225 -92q-186 0 -256 137q-10 18 -16.5 38.5t-9.5 35t-5 45.5l-3 45q-1 14 -1 61v70q-2 63 -2 190zM135 1374h223l109 -219h-131zM240 612h258v43q0 80 -2 119q-8 141 -127 141q-78 0 -109 -65q-20 -45 -20 -195v-43z" />
<glyph unicode="&#xe9;" d="M74 604q0 96 8 176q10 84 30.5 128t57.5 75q70 57 188 57q127 0 197 -55q39 -29 61 -72q10 -18 17.5 -43.5t10.5 -43t5 -53.5t2 -46v-51v-43v-152h-411q-2 -45 -2 -90t2 -90q2 -70 10 -96q27 -90 123 -90q47 0 76 22q49 37 49 170v10h153q1 -28 1 -49.5t-1 -38.5 q-2 -33 -16 -76.5t-43 -78.5q-76 -92 -225 -92q-186 0 -256 137q-10 18 -16.5 38.5t-9.5 35t-5 45.5l-3 45q-1 14 -1 61v70q-2 63 -2 190zM240 612h258v43q0 80 -2 119q-8 141 -127 141q-78 0 -109 -65q-20 -45 -20 -195v-43zM272 1155l109 219h223l-201 -219h-131z" />
<glyph unicode="&#xea;" d="M74 604q0 96 8 176q10 84 30.5 128t57.5 75q70 57 188 57q127 0 197 -55q39 -29 61 -72q10 -18 17.5 -43.5t10.5 -43t5 -53.5t2 -46v-51v-43v-152h-411q-2 -45 -2 -90t2 -90q2 -70 10 -96q27 -90 123 -90q47 0 76 22q49 37 49 170v10h153q1 -28 1 -49.5t-1 -38.5 q-2 -33 -16 -76.5t-43 -78.5q-76 -92 -225 -92q-186 0 -256 137q-10 18 -16.5 38.5t-9.5 35t-5 45.5l-3 45q-1 14 -1 61v70q-2 63 -2 190zM100 1153l209 225h133l201 -225h-178l-111 129l-116 -129h-138zM240 612h258v43q0 80 -2 119q-8 141 -127 141q-78 0 -109 -65 q-20 -45 -20 -195v-43z" />
<glyph unicode="&#xeb;" d="M74 604q0 96 8 176q10 84 30.5 128t57.5 75q70 57 188 57q127 0 197 -55q39 -29 61 -72q10 -18 17.5 -43.5t10.5 -43t5 -53.5t2 -46v-51v-43v-152h-411q-2 -45 -2 -90t2 -90q2 -70 10 -96q27 -90 123 -90q47 0 76 22q49 37 49 170v10h153q1 -28 1 -49.5t-1 -38.5 q-2 -33 -16 -76.5t-43 -78.5q-76 -92 -225 -92q-186 0 -256 137q-10 18 -16.5 38.5t-9.5 35t-5 45.5l-3 45q-1 14 -1 61v70q-2 63 -2 190zM125 1153v211h162v-211h-162zM240 612h258v43q0 80 -2 119q-8 141 -127 141q-78 0 -109 -65q-20 -45 -20 -195v-43zM442 1153v211h160 v-211h-160z" />
<glyph unicode="&#xec;" horiz-adv-x="342" d="M-57 1374h223l108 -219h-131zM90 0v1024h162v-1024h-162z" />
<glyph unicode="&#xed;" horiz-adv-x="342" d="M80 1155l108 219h224l-199 -219h-133zM90 0v1024h162v-1024h-162z" />
<glyph unicode="&#xee;" horiz-adv-x="342" d="M-92 1153l209 225h133l201 -225h-179l-108 129l-119 -129h-137zM90 0v1024h162v-1024h-162z" />
<glyph unicode="&#xef;" horiz-adv-x="342" d="M-68 1153v211h162v-211h-162zM90 0v1024h162v-1024h-162zM252 1153v211h158v-211h-158z" />
<glyph unicode="&#xf0;" d="M74 271v37v26v137q0 264 8 328q8 45 16 71q29 84 86 127q61 49 146 50q90 0 162 -86q-29 174 -62 235l-225 -70l-33 95l199 61q-51 61 -127 115l137 57q78 -59 113 -106l14 -21l141 45l35 -98l-115 -35q41 -74 41 -102q20 -51 30.5 -130t11.5 -144.5t1 -213.5v-59 q0 -115 -6 -258q-2 -86 -10 -135.5t-35 -104.5t-85 -81.5t-150 -28.5q-47 0 -87 7t-68 20.5t-51.5 35t-37.5 39.5t-24.5 47t-15.5 48.5t-7 49t-2 42.5zM246 575q0 -299 4 -348q4 -41 14 -59q33 -59 92 -59q41 0 68 18t37 52t13 59.5t3 60.5v12q4 72 4 193v96q0 186 -16 236 q-24 74 -95 73h-3q-72 0 -105 -73q-16 -38 -16 -261z" />
<glyph unicode="&#xf1;" horiz-adv-x="768" d="M90 0v1024h156v-94q2 2 14 17.5t21 23.5q84 72 186 71q123 0 176 -88q23 -37 29 -84t6 -149v-721h-166v750q0 164 -121 163q-90 0 -123 -86q-14 -37 -14 -165v-662h-164zM127 1165q0 90 57 144q25 25 49 32q27 8 50 9q41 0 153 -43q53 -20 80 -21q53 0 53 62h74 q-2 -43 -10 -70q-6 -20 -18.5 -40.5t-46 -46.5t-79.5 -26q-23 0 -48 6.5t-69 23.5t-46 17q-53 16 -70 17q-10 0 -19.5 -3t-14.5 -8.5t-9 -10.5t-6 -12t-3 -11l-3 -13v-6h-74z" />
<glyph unicode="&#xf2;" d="M74 330v133q0 178 4 266q4 168 74 240q66 74 219 73q78 0 134 -26.5t83.5 -58t43 -85t17.5 -79t2 -66.5q1 -56 1 -112.5t-1 -112.5q0 -131 -4 -197q-2 -76 -10 -115q-35 -209 -279 -208q-174 0 -241 112q-43 76 -43 236zM135 1374h223l109 -219h-131zM246 559 q0 -41 1 -124t1 -124q0 -98 10 -129q23 -72 100 -71q92 0 113 106q10 59 10 287q0 150 -2 225q-2 39 -4 61.5t-12 55.5t-33.5 48t-60.5 15q-90 0 -113 -96q-10 -43 -10 -254z" />
<glyph unicode="&#xf3;" d="M74 330v133q0 178 4 266q4 168 74 240q66 74 219 73q78 0 134 -26.5t83.5 -58t43 -85t17.5 -79t2 -66.5q1 -56 1 -112.5t-1 -112.5q0 -131 -4 -197q-2 -76 -10 -115q-35 -209 -279 -208q-174 0 -241 112q-43 76 -43 236zM246 559q0 -41 1 -124t1 -124q0 -98 10 -129 q23 -72 100 -71q92 0 113 106q10 59 10 287q0 150 -2 225q-2 39 -4 61.5t-12 55.5t-33.5 48t-60.5 15q-90 0 -113 -96q-10 -43 -10 -254zM272 1155l109 219h223l-201 -219h-131z" />
<glyph unicode="&#xf4;" d="M74 330v133q0 178 4 266q4 168 74 240q66 74 219 73q78 0 134 -26.5t83.5 -58t43 -85t17.5 -79t2 -66.5q1 -56 1 -112.5t-1 -112.5q0 -131 -4 -197q-2 -76 -10 -115q-35 -209 -279 -208q-174 0 -241 112q-43 76 -43 236zM100 1153l209 225h133l201 -225h-178l-111 129 l-116 -129h-138zM246 559q0 -41 1 -124t1 -124q0 -98 10 -129q23 -72 100 -71q92 0 113 106q10 59 10 287q0 150 -2 225q-2 39 -4 61.5t-12 55.5t-33.5 48t-60.5 15q-90 0 -113 -96q-10 -43 -10 -254z" />
<glyph unicode="&#xf5;" d="M74 330v133q0 178 4 266q4 168 74 240q66 74 219 73q78 0 134 -26.5t83.5 -58t43 -85t17.5 -79t2 -66.5q1 -56 1 -112.5t-1 -112.5q0 -131 -4 -197q-2 -76 -10 -115q-35 -209 -279 -208q-174 0 -241 112q-43 76 -43 236zM106 1165q0 90 56 144q29 25 51 32q25 8 47 9 q43 0 156 -43q53 -20 80 -21q45 0 53 62h74q-2 -43 -11 -70q-6 -20 -18 -40.5t-46 -46.5t-79 -26q-23 0 -51.5 8.5t-65.5 21.5t-47 17q-47 16 -69 17q-10 0 -19.5 -3t-14.5 -8.5l-9.5 -10.5t-6.5 -12t-3 -11l-3 -13v-6h-74zM246 559q0 -41 1 -124t1 -124q0 -98 10 -129 q23 -72 100 -71q92 0 113 106q10 59 10 287q0 150 -2 225q-2 39 -4 61.5t-12 55.5t-33.5 48t-60.5 15q-90 0 -113 -96q-10 -43 -10 -254z" />
<glyph unicode="&#xf6;" d="M74 330v133q0 178 4 266q4 168 74 240q66 74 219 73q78 0 134 -26.5t83.5 -58t43 -85t17.5 -79t2 -66.5q1 -56 1 -112.5t-1 -112.5q0 -131 -4 -197q-2 -76 -10 -115q-35 -209 -279 -208q-174 0 -241 112q-43 76 -43 236zM125 1153v211h160v-211h-160zM246 559 q0 -41 1 -124t1 -124q0 -98 10 -129q23 -72 100 -71q92 0 113 106q10 59 10 287q0 150 -2 225q-2 39 -4 61.5t-12 55.5t-33.5 48t-60.5 15q-90 0 -113 -96q-10 -43 -10 -254zM442 1153v211h158v-211h-158z" />
<glyph unicode="&#xf7;" horiz-adv-x="1144" d="M162 535v149h821v-149h-821zM489 203v209h170v-209h-170zM489 805v209h168l2 -209h-170z" />
<glyph unicode="&#xf8;" d="M29 27l63 116q-16 70 -18 183q-2 43 -2 129q0 84 4 247q0 186 76 267q72 74 219 73q111 0 170 -43q4 -2 30 -22l45 70l56 -46l-56 -92q0 -4 6 -17l9 -24q20 -80 20 -278q0 -188 -4 -283q-4 -184 -78 -256q-70 -70 -207 -69q-117 0 -188 51q-14 10 -39 35l-43 -86z M244 406l229 399q0 14 -10 39q-24 66 -94 65h-4q-61 0 -95 -53q-4 -8 -8 -19.5t-7 -25.5t-5 -27.5t-3 -35t-2 -36t-1 -41.5v-43v-47v-49v-126zM250 262q0 -49 4 -67q20 -84 102 -84q102 0 117 120q8 55 8 344q0 61 -2 93z" />
<glyph unicode="&#xf9;" horiz-adv-x="768" d="M90 381v643h164v-672q0 -57 2 -86q0 -63 14 -94q29 -68 107 -68q47 0 80 27q37 29 48 77t11 148v668h162v-1024h-158l-2 94q-88 -113 -217 -112q-78 0 -133 45q-39 33 -56.5 88t-19.5 98t-2 168zM156 1374h223l108 -219h-131z" />
<glyph unicode="&#xfa;" horiz-adv-x="768" d="M90 381v643h164v-672q0 -57 2 -86q0 -63 14 -94q29 -68 107 -68q47 0 80 27q37 29 48 77t11 148v668h162v-1024h-158l-2 94q-88 -113 -217 -112q-78 0 -133 45q-39 33 -56.5 88t-19.5 98t-2 168zM295 1155l106 219h226l-201 -219h-131z" />
<glyph unicode="&#xfb;" horiz-adv-x="768" d="M90 381v643h164v-672q0 -57 2 -86q0 -63 14 -94q29 -68 107 -68q47 0 80 27q37 29 48 77t11 148v668h162v-1024h-158l-2 94q-88 -113 -217 -112q-78 0 -133 45q-39 33 -56.5 88t-19.5 98t-2 168zM121 1153l209 225h133l201 -225h-179l-108 129l-119 -129h-137z" />
<glyph unicode="&#xfc;" horiz-adv-x="768" d="M90 381v643h164v-672q0 -57 2 -86q0 -63 14 -94q29 -68 107 -68q47 0 80 27q37 29 48 77t11 148v668h162v-1024h-158l-2 94q-88 -113 -217 -112q-78 0 -133 45q-39 33 -56.5 88t-19.5 98t-2 168zM150 1153v211h161v-211h-161zM469 1153v211h158v-211h-158z" />
<glyph unicode="&#xfd;" horiz-adv-x="681" d="M12 1024h176l162 -823l131 823h174l-176 -893q-4 -25 -17 -97.5t-18.5 -94t-19.5 -71.5t-27.5 -71.5t-36 -49.5t-53.5 -48q-49 -33 -160 -33h-106v141q6 0 22.5 -1t24.5 -1q33 0 48.5 1t45 6.5t44 17.5t26.5 36.5t12 59.5q0 43 -20 125zM252 1155l108 219h224l-201 -219 h-131z" />
<glyph unicode="&#xfe;" horiz-adv-x="768" d="M90 -326v1772h162v-520q27 35 47 55t64.5 40.5t97.5 20.5q86 0 149 -55q41 -37 59.5 -99.5t21.5 -117.5t3 -176q0 -410 -41 -490q-53 -111 -192 -122q-4 0 -9 -1q-117 0 -194 105v-412h-168zM260 537q0 -293 21 -342q35 -88 116 -91q29 0 49.5 8.5t34 27t21.5 34.5t12 45 t5 43t1 43v33q2 37 3 98.5t1 98.5q0 31 -1 88t-1 87.5t-1 46t-8 49.5t-18.5 53.5t-35 35.5t-56.5 16q-27 0 -47 -6t-34.5 -22.5t-25.5 -31.5t-17.5 -41t-11.5 -43t-6 -47t-1 -42v-40v-30v-71z" />
<glyph unicode="&#xff;" horiz-adv-x="681" d="M12 1024h176l162 -823l131 823h174l-176 -893q-4 -18 -11 -55t-11 -56q-14 -72 -22.5 -107.5t-33 -93t-59.5 -91.5q-63 -61 -195 -62h-106v141q27 -1 54 -1t55 1q29 4 48 9.5t42.5 33t23.5 76.5q0 39 -20 125zM104 1153v211h160v-211h-160zM422 1153v211h158v-211h-158z " />
<glyph unicode="&#x152;" horiz-adv-x="1323" d="M90 598q0 293 8 444q4 88 9.5 131.5t31 105.5t72.5 105q94 84 250 84q37 0 106 -8q12 0 40 -3t42 -5q59 -6 115 -6h496v-162h-429v-430h365v-164h-365v-528h451v-162h-524q-25 0 -148 -10q-147 -10 -174 -10q-135 0 -217 69q-82 66 -108 207q-21 113 -21 342zM276 721 q0 -203 5 -305q2 -147 36 -207q47 -74 160 -74q86 0 129 49q25 29 35 66q16 59 16 256v469q0 133 -2 160q-10 109 -69 151q-41 29 -109 29q-115 0 -162 -88q-18 -35 -27 -93.5t-10.5 -109.5t-1.5 -162v-141z" />
<glyph unicode="&#x153;" horiz-adv-x="1110" d="M74 510q0 59 4 174q0 57 2 86q16 190 139 244q70 29 143 28q102 0 203 -75q90 76 195 75q98 0 170 -51q49 -37 73.5 -92t28.5 -97t4 -116v-199h-397v-67q0 -199 8 -227q25 -82 117 -82q47 0 74 26q29 25 36 66t9 131h153q0 -12 -1 -33.5t-1 -32.5q-10 -188 -119 -250 q-63 -37 -153 -36q-109 0 -199 84q-10 -10 -35 -31q-74 -53 -184 -53q-133 0 -209 86q-25 29 -33 55q-28 72 -28 387zM238 528q0 -152 4 -227q2 -104 26 -143q29 -49 94 -49q49 0 78 30q10 12 18.5 27.5t12.5 28t6 38t3 40t2 51t1 55.5q4 86 4 127q1 23 1 53q0 61 -3 154 q0 82 -10 114q-29 86 -113 86q-94 0 -112 -112q-12 -99 -12 -273zM639 621h242q0 197 -25 237q-31 51 -100 51q-37 0 -64 -18q-53 -37 -53 -178v-92z" />
<glyph unicode="&#x178;" horiz-adv-x="811" d="M0 1446h190l216 -723l215 723h190l-317 -860v-586h-187v586zM139 1565v219h170v-219h-170zM504 1565v219h170v-219h-170z" />
<glyph unicode="&#x2c6;" horiz-adv-x="468" d="M-37 1153l209 225h133l201 -225h-178l-111 129l-117 -129h-137z" />
<glyph unicode="&#x2dc;" horiz-adv-x="468" d="M-23 1165q0 92 54 144q29 25 51 32q25 8 47 9q47 0 156 -43q55 -20 80 -21q53 0 53 62h76q-6 -57 -11 -70q-6 -20 -18 -40.5t-46 -46.5t-79 -26q-23 0 -51.5 7.5t-67.5 22.5t-45 17q-50 16 -70 17q-55 0 -55 -64h-74z" />
<glyph unicode="&#x2013;" horiz-adv-x="759" d="M51 518v160h658v-160h-658z" />
<glyph unicode="&#x2014;" horiz-adv-x="1161" d="M51 518v160h1059v-160h-1059z" />
<glyph unicode="&#x2018;" horiz-adv-x="342" d="M84 926v248q0 115 37 183t137 89v-105q-14 -4 -25.5 -9t-19.5 -14l-13 -15q-5 -6 -9.5 -20.5l-6.5 -21t-3 -23.5t-1 -23v-25v-23h78v-241h-174z" />
<glyph unicode="&#x2019;" horiz-adv-x="342" d="M84 926v104q78 20 78 137q0 27 -2 39h-76v240h174v-248q0 -117 -36 -184.5t-138 -87.5z" />
<glyph unicode="&#x201a;" horiz-adv-x="342" d="M84 0v242h174v-250q0 -115 -37 -183.5t-137 -89.5v107q78 18 78 137q0 25 -2 37h-76z" />
<glyph unicode="&#x201c;" horiz-adv-x="641" d="M84 926v248q0 115 37 183t137 89v-105q-78 -20 -78 -120v-54h78v-241h-174zM381 1174q0 74 12.5 125t53 93t110.5 54v-105q-29 -8 -46 -24.5t-23.5 -48t-7.5 -46t-1 -55.5h78v-241h-174q0 41 -1 124t-1 124z" />
<glyph unicode="&#x201d;" horiz-adv-x="641" d="M84 926v104q78 29 78 137q0 25 -2 37h-76v242h174v-248q0 -117 -36 -184.5t-138 -87.5zM383 926v104q14 2 26.5 12.5t20.5 19.5t14.5 21.5t9.5 20.5t4 24.5t1 22.5v27v26h-76v242h174v-248q0 -115 -37 -183.5t-137 -88.5z" />
<glyph unicode="&#x201e;" horiz-adv-x="641" d="M84 0v242h174v-250q0 -117 -36 -184.5t-138 -88.5v105q78 29 78 137q0 27 -2 39h-76zM383 0v242h174v-250q0 -115 -37 -183.5t-137 -89.5v105q2 0 12.5 4t14.5 8q12 8 20 18.5t14.5 22.5t9.5 20.5t4 26t1 23.5v26v27h-76z" />
<glyph unicode="&#x2022;" horiz-adv-x="698" d="M158 475v510h381v-510h-381z" />
<glyph unicode="&#x2026;" horiz-adv-x="2048" d="M256 0v205h172v-205h-172zM938 0v205h172v-205h-172zM1620 0v205h172v-205h-172z" />
<glyph unicode="&#x2039;" horiz-adv-x="382" d="M41 487v177l287 319v-238l-152 -170l152 -172v-239z" />
<glyph unicode="&#x203a;" horiz-adv-x="382" d="M57 164v239l152 172l-152 170v238l285 -319v-177z" />
<glyph unicode="&#x20ac;" horiz-adv-x="888" d="M49 569l25 117h82v100h-105l23 117h84v113q0 223 75 323q98 129 304 129q166 0 288 -92l-47 -180q-63 61 -116.5 91t-126.5 30q-70 0 -114 -27.5t-59.5 -70.5t-22.5 -99q-4 -32 -4 -64q0 -23 2 -46q2 -25 2 -50q0 -29 -3 -57h389l-27 -117h-362v-100h342l-25 -117h-317 q-2 -16 -2 -96q0 -203 31 -260q43 -82 159 -82q170 0 293 127v-199q-141 -80 -332 -79q-104 0 -182 48t-115 142q-16 41 -23 98.5t-8 92.5q-1 18 -1 46.5t1 67.5q1 78 1 94h-109z" />
<glyph unicode="&#x2122;" horiz-adv-x="1140" d="M10 1348v98h385v-98h-135v-582h-119v582h-131zM457 766v680h182l111 -541l110 541h187v-680h-119l14 614l-131 -614h-125l-129 606l12 -606h-112z" />
<glyph unicode="&#xe000;" horiz-adv-x="1025" d="M0 1025h1025v-1025h-1025v1025z" />
<glyph unicode="&#xfb01;" horiz-adv-x="811" d="M10 901v123h121v111q0 168 41 229q55 88 201 88q53 0 86 -12v-142q-43 12 -66 13q-39 0 -63 -21q-27 -23 -32 -53.5t-5 -110.5v-102h166v-123h-166v-901h-162v901h-121zM559 0v1024h162v-1024h-162zM559 1204v211h162v-211h-162z" />
<glyph unicode="&#xfb02;" horiz-adv-x="811" d="M10 901v123h121v111q0 168 41 229q55 88 201 88q53 0 86 -12v-142q-43 12 -66 13q-39 0 -63 -21q-27 -23 -32 -53.5t-5 -110.5v-102h166v-123h-166v-901h-162v901h-121zM557 0v1446h166v-1446h-166z" />
<glyph unicode="&#xfb03;" horiz-adv-x="1280" d="M10 901v123h121v111q0 168 41 229q55 88 201 88q53 0 86 -12v-142q-43 12 -66 13q-39 0 -63 -21q-27 -23 -32 -53.5t-5 -110.5v-102h166v-123h-166v-901h-162v901h-121zM479 901v123h121v111q0 168 41 229q55 88 201 88q53 0 86 -12v-142q-43 12 -66 13q-39 0 -63 -21 q-27 -23 -32 -53.5t-5 -110.5v-102h166v-123h-166v-901h-162v901h-121zM1028 0v1024h162v-1024h-162zM1028 1204v211h162v-211h-162z" />
<glyph unicode="&#xfb04;" horiz-adv-x="1280" d="M10 901v123h121v111q0 168 41 229q55 88 201 88q53 0 86 -12v-142q-43 12 -66 13q-39 0 -63 -21q-27 -23 -32 -53.5t-5 -110.5v-102h166v-123h-166v-901h-162v901h-121zM479 901v123h121v111q0 168 41 229q55 88 201 88q53 0 86 -12v-142q-43 12 -66 13q-39 0 -63 -21 q-27 -23 -32 -53.5t-5 -110.5v-102h166v-123h-166v-901h-162v901h-121zM1026 0v1446h166v-1446h-166z" />
</font>
</defs>
</svg>
